<svg width="690" height="689" viewBox="0 0 690 689" fill="none" xmlns="http://www.w3.org/2000/svg">
<path d="M646.695 43.2201C647.212 43.7388 647.585 44.3864 647.786 45.1116C647.986 45.8369 648.007 46.6199 647.848 47.3987L641.176 133.558C640.986 134.489 640.545 135.381 639.902 136.133C639.259 136.885 638.44 137.468 637.536 137.815C636.632 138.163 635.679 138.263 634.785 138.102C633.89 137.942 633.088 137.529 632.47 136.908L606.106 110.462L49.6326 644.993C48.6251 645.775 47.4124 646.201 46.2153 646.194C45.0182 646.187 43.9164 645.747 43.1107 644.953L43.084 644.927C42.2898 644.13 41.8436 643.038 41.8262 641.849C41.8087 640.66 42.221 639.451 42.9887 638.441L577.059 81.3301L552.958 57.153C552.34 56.5326 551.929 55.7297 551.772 54.8344C551.614 53.9391 551.717 52.9866 552.067 52.0838C552.418 51.181 553.003 50.3636 553.757 49.723C554.511 49.0824 555.405 48.644 556.337 48.457L642.527 42.0601C643.304 41.904 644.086 41.9276 644.809 42.1289C645.532 42.3302 646.178 42.7038 646.695 43.2201ZM633.339 122.681L636.634 53.2492L567.192 56.3253L587.453 76.6505C588.247 77.4474 588.693 78.5389 588.711 79.7282C588.728 80.9175 588.316 82.1261 587.548 83.1361L72.4171 615.34L604.21 99.9637C605.224 99.1763 606.446 98.7496 607.65 98.7624C608.854 98.7751 609.959 99.2264 610.762 100.033L633.339 122.681Z" fill="#439182"/>
<g clip-path="url(#clip0_2005_59)">
<path d="M110.894 471.062H66.5064C65.1256 471.062 64.0064 469.943 64.0064 468.562V411.438C64.0064 410.057 65.1256 408.938 66.5064 408.938H100.29L110.894 419.542V471.062H110.894Z" fill="#F9F7F8"/>
<path d="M100.29 408.938V417.042C100.29 418.422 101.409 419.542 102.79 419.542H110.894L100.29 408.938Z" fill="#C2BCE0"/>
<path d="M72.1218 420.312H77.2629V434.566H72.1218V420.312Z" fill="#00D8C0"/>
<path d="M80.6271 423.938H85.7683V434.566H80.6271V423.938Z" fill="#FE93D3"/>
<path d="M89.1325 416.708H94.2736V434.566H89.1325V416.708Z" fill="#9BE69D"/>
<path d="M97.638 427.208H102.779V434.566H97.638V427.208Z" fill="#FFE589"/>
<path d="M72.1218 445.053H87.4504V449.75H72.1218V445.053Z" fill="#FFCD55"/>
<path d="M87.4606 445.053H102.789V449.75H87.4606V445.053Z" fill="#ACA6D6"/>
<path d="M116.189 457.069C121.58 457.069 125.951 452.692 125.951 447.292C125.951 441.892 121.58 437.515 116.189 437.515C110.797 437.515 106.427 441.892 106.427 447.292C106.427 452.692 110.797 457.069 116.189 457.069Z" fill="#FFCD55"/>
<path d="M116.189 437.515C115.324 437.515 114.487 437.629 113.689 437.84C117.869 438.946 120.951 442.758 120.951 447.292C120.951 451.826 117.869 455.638 113.689 456.744C114.505 456.96 115.345 457.069 116.189 457.069C121.58 457.069 125.951 452.692 125.951 447.292C125.951 441.893 121.58 437.515 116.189 437.515Z" fill="#FFBE46"/>
<path d="M116.189 453.034C113.031 453.034 110.461 450.458 110.461 447.292C110.461 444.126 113.031 441.55 116.189 441.55C119.347 441.55 121.916 444.126 121.916 447.292C121.916 450.458 119.347 453.034 116.189 453.034ZM124.369 461.766H108.009C107.111 461.766 106.384 461.039 106.384 460.141V458.743C106.384 457.845 107.111 457.118 108.009 457.118H124.369C125.266 457.118 125.994 457.845 125.994 458.743V460.141C125.994 461.039 125.266 461.766 124.369 461.766Z" fill="#FFE589"/>
<path d="M124.369 466.414H108.009C107.111 466.414 106.384 465.687 106.384 464.789V463.391C106.384 462.494 107.111 461.766 108.009 461.766H124.369C125.266 461.766 125.994 462.494 125.994 463.391V464.789C125.994 465.687 125.266 466.414 124.369 466.414Z" fill="#FFCD55"/>
<path d="M124.369 461.766H119.369C120.266 461.766 120.994 462.494 120.994 463.391V464.789C120.994 465.687 120.266 466.414 119.369 466.414H124.369C125.266 466.414 125.994 465.687 125.994 464.789V463.391C125.994 462.494 125.266 461.766 124.369 461.766Z" fill="#FFBE46"/>
<path d="M124.369 471.062H108.009C107.111 471.062 106.384 470.335 106.384 469.437V468.039C106.384 467.142 107.111 466.414 108.009 466.414H124.369C125.266 466.414 125.994 467.142 125.994 468.039V469.437C125.994 470.335 125.266 471.062 124.369 471.062Z" fill="#FFE589"/>
<path d="M124.369 457.118H119.369C120.266 457.118 120.994 457.845 120.994 458.743V460.141C120.994 461.039 120.266 461.766 119.369 461.766H124.369C125.266 461.766 125.994 461.039 125.994 460.141V458.743C125.994 457.845 125.266 457.118 124.369 457.118ZM124.369 466.414H119.369C120.266 466.414 120.994 467.142 120.994 468.039V469.438C120.994 470.335 120.266 471.063 119.369 471.063H124.369C125.266 471.063 125.994 470.335 125.994 469.438V468.039C125.994 467.142 125.266 466.414 124.369 466.414Z" fill="#FFD86D"/>
<path d="M64.0064 416.708V411.438C64.0064 410.057 65.1256 408.938 66.5064 408.938H100.29L110.894 419.542V439.077M108.009 471.062H66.5064C65.1256 471.062 64.0064 469.943 64.0064 468.562V420.812" stroke="black" stroke-width="2" stroke-miterlimit="10" stroke-linecap="round" stroke-linejoin="round"/>
<path d="M69.6435 438.575H105.257M87.4504 449.75V445.053H72.1217V449.75H87.4504ZM87.4504 449.75V465.139M74.0596 454.447H82.2922M74.0596 459.145H82.2922M74.0596 463.842H82.2922M92.6085 454.447H100.841M92.6085 459.145H100.841M92.6085 463.842H100.841M100.29 408.938V417.042C100.29 418.422 101.409 419.542 102.79 419.542H110.894L100.29 408.938ZM72.1217 420.312H77.2629V434.566H72.1217V420.312ZM80.6271 423.938H85.7682V434.566H80.6271V423.938ZM89.1325 416.708H94.2736V434.566H89.1325V416.708ZM97.638 427.208H102.779V434.566H97.638V427.208ZM87.4606 445.053H102.789V449.75H87.4606V445.053ZM116.189 437.515C110.797 437.515 106.427 441.892 106.427 447.292C106.427 452.692 110.797 457.069 116.189 457.069C121.58 457.069 125.951 452.692 125.951 447.292C125.951 441.892 121.58 437.515 116.189 437.515Z" stroke="black" stroke-width="2" stroke-miterlimit="10" stroke-linecap="round" stroke-linejoin="round"/>
<path d="M121.368 449.742C121.729 448.976 121.917 448.139 121.916 447.292C121.916 444.126 119.347 441.55 116.189 441.55C113.031 441.55 110.461 444.126 110.461 447.292C110.461 450.458 113.031 453.034 116.189 453.034C117.09 453.035 117.98 452.821 118.782 452.409M108.009 461.766H124.369C125.266 461.766 125.994 461.039 125.994 460.141V458.743C125.994 457.845 125.266 457.118 124.369 457.118H108.009C107.111 457.118 106.384 457.845 106.384 458.743V460.141C106.384 461.039 107.111 461.766 108.009 461.766ZM108.009 461.766C107.111 461.766 106.384 462.494 106.384 463.391V464.789C106.384 465.687 107.111 466.414 108.009 466.414M108.009 461.766L124.369 461.766C125.266 461.766 125.994 462.494 125.994 463.391V464.789C125.994 465.687 125.266 466.414 124.369 466.414H108.009M108.009 466.414C107.111 466.414 106.384 467.142 106.384 468.039V469.438C106.384 470.335 107.111 471.063 108.009 471.063H124.369C125.266 471.063 125.994 470.335 125.994 469.438V468.039C125.994 467.142 125.266 466.414 124.369 466.414H108.009Z" stroke="black" stroke-width="2" stroke-miterlimit="10" stroke-linecap="round" stroke-linejoin="round"/>
</g>
<g clip-path="url(#clip1_2005_59)">
<path d="M201.351 346.573H206.252C207.633 346.573 208.752 345.454 208.751 344.073L208.748 337.892C208.747 336.513 207.628 335.395 206.249 335.395H201.343C200.755 332.936 199.779 330.587 198.454 328.435L201.918 324.97C202.894 323.994 202.894 322.412 201.917 321.436L197.545 317.067C196.569 316.091 194.988 316.092 194.012 317.067L190.546 320.534C188.394 319.212 186.046 318.239 183.589 317.653V312.75C183.589 311.37 182.471 310.251 181.091 310.251H174.91C173.53 310.251 172.411 311.37 172.411 312.75V317.653C169.955 318.239 167.607 319.212 165.455 320.534L161.988 317.068C161.013 316.092 159.431 316.092 158.455 317.067L154.083 321.436C153.107 322.412 153.106 323.994 154.082 324.97L157.547 328.435C156.221 330.587 155.246 332.936 154.657 335.395H149.751C148.372 335.395 147.254 336.513 147.253 337.892L147.249 344.073C147.249 345.453 148.368 346.573 149.748 346.573H154.649C155.235 349.035 156.209 351.389 157.534 353.546L154.068 357.012C153.092 357.988 153.092 359.569 154.067 360.545L158.436 364.917C159.412 365.894 160.994 365.894 161.97 364.918L165.435 361.453C167.592 362.782 169.947 363.759 172.411 364.347V369.25C172.411 370.63 173.529 371.749 174.909 371.749H181.09C182.47 371.749 183.589 370.63 183.589 369.25V364.347C186.089 363.751 188.437 362.764 190.565 361.453L194.03 364.918C195.006 365.894 196.588 365.894 197.564 364.917L201.933 360.545C202.908 359.569 202.908 357.988 201.932 357.012L198.466 353.546C199.791 351.389 200.765 349.036 201.351 346.573Z" fill="#FFC66C"/>
<path d="M178 356.491C186.556 356.491 193.492 349.556 193.492 341C193.492 332.444 186.556 325.508 178 325.508C169.444 325.508 162.509 332.444 162.509 341C162.509 349.556 169.444 356.491 178 356.491Z" fill="#B3B6C3"/>
<path d="M178 350.994C183.52 350.994 187.995 346.52 187.995 341C187.995 335.48 183.52 331.005 178 331.005C172.48 331.005 168.006 335.48 168.006 341C168.006 346.52 172.48 350.994 178 350.994Z" fill="white"/>
<path d="M178 357.741C173.528 357.741 169.324 356 166.163 352.838C163.001 349.676 161.259 345.472 161.259 341C161.259 336.528 163.001 332.324 166.163 329.163C171.168 324.157 178.823 322.84 185.209 325.886C185.832 326.183 186.096 326.929 185.799 327.552C185.502 328.174 184.756 328.438 184.134 328.142C178.7 325.55 172.188 326.67 167.929 330.929C165.239 333.619 163.758 337.196 163.758 341C163.758 344.804 165.239 348.381 167.929 351.071C170.619 353.761 174.196 355.242 178 355.242C181.804 355.242 185.381 353.761 188.071 351.071C192.492 346.65 193.522 339.958 190.635 334.418C190.316 333.807 190.554 333.052 191.165 332.733C191.777 332.414 192.532 332.652 192.851 333.263C194.485 336.398 195.078 339.914 194.565 343.429C194.042 347.015 192.407 350.268 189.838 352.838C186.676 356 182.472 357.741 178 357.741Z" fill="black"/>
<path d="M189.006 331.347C188.84 331.347 188.677 331.314 188.524 331.251C188.372 331.187 188.234 331.094 188.118 330.976L188.071 330.929C187.583 330.441 187.583 329.65 188.071 329.162C188.559 328.674 189.35 328.674 189.838 329.162L189.894 329.219C190.379 329.709 190.375 330.5 189.884 330.986C189.651 331.217 189.335 331.347 189.006 331.347ZM178.024 352.252C176.82 352.252 175.602 352.058 174.412 351.658C173.758 351.439 173.406 350.73 173.626 350.076C173.845 349.422 174.554 349.07 175.208 349.29C178.38 350.355 181.819 349.548 184.184 347.184C185.836 345.532 186.745 343.336 186.745 341C186.745 338.664 185.836 336.468 184.184 334.816C182.532 333.164 180.336 332.255 178 332.255C175.664 332.255 173.468 333.164 171.816 334.816C169.474 337.158 168.658 340.571 169.687 343.722C169.901 344.378 169.543 345.084 168.887 345.298C168.231 345.512 167.526 345.154 167.312 344.498C165.989 340.447 167.038 336.06 170.05 333.049C172.173 330.926 174.997 329.756 178 329.756C181.003 329.756 183.827 330.926 185.951 333.049C188.074 335.173 189.244 337.997 189.244 341C189.244 344.003 188.074 346.827 185.951 348.951C183.797 351.104 180.951 352.252 178.024 352.252Z" fill="black"/>
<path d="M170.971 349.355C170.642 349.356 170.326 349.226 170.092 348.993L170.049 348.951C169.562 348.463 169.562 347.672 170.049 347.184C170.537 346.696 171.328 346.696 171.816 347.184L171.851 347.218C172.341 347.704 172.345 348.495 171.859 348.985C171.743 349.102 171.605 349.196 171.453 349.259C171.3 349.323 171.137 349.355 170.971 349.355Z" fill="black"/>
<path d="M181.091 372.998H174.91C172.843 372.998 171.162 371.317 171.162 369.25V365.313C169.234 364.773 167.378 364.003 165.634 363.021L162.854 365.801C162.146 366.509 161.204 366.899 160.203 366.899H160.203C159.201 366.899 158.26 366.509 157.552 365.8L153.183 361.428C151.723 359.967 151.723 357.59 153.184 356.129L155.968 353.345C154.988 351.602 154.221 349.748 153.682 347.822H149.748C148.747 347.822 147.805 347.432 147.097 346.724C146.389 346.015 146 345.074 146 344.072L146.003 337.891C146.005 335.826 147.686 334.145 149.751 334.145H153.691C154.232 332.224 155 330.373 155.98 328.634L153.199 325.853C152.491 325.145 152.101 324.204 152.101 323.202C152.101 322.201 152.491 321.26 153.2 320.552L157.572 316.183C159.033 314.722 161.41 314.723 162.871 316.184L165.655 318.967C167.393 317.991 169.242 317.225 171.162 316.686V312.749C171.162 310.683 172.843 309.001 174.91 309.001H181.091C183.157 309.001 184.839 310.683 184.839 312.749V316.687C186.759 317.225 188.607 317.991 190.346 318.968L193.129 316.184C194.59 314.723 196.967 314.723 198.429 316.183L202.801 320.552C203.509 321.26 203.899 322.201 203.899 323.203C203.9 324.204 203.51 325.145 202.802 325.854L200.021 328.634C201 330.374 201.769 332.224 202.309 334.145H206.249C208.315 334.145 209.996 335.826 209.997 337.891L210.001 344.072C210.001 345.074 209.612 346.015 208.903 346.724C208.195 347.432 207.254 347.822 206.253 347.822H202.318C201.78 349.748 201.012 351.602 200.033 353.345L202.816 356.129C204.277 357.59 204.278 359.967 202.817 361.428L198.448 365.801C197.74 366.509 196.799 366.899 195.798 366.899H195.797C194.796 366.899 193.855 366.509 193.147 365.801L190.366 363.021C188.622 364.003 186.766 364.773 184.839 365.313V369.251C184.839 371.317 183.157 372.998 181.091 372.998ZM165.435 360.204C165.666 360.204 165.893 360.268 166.09 360.389C168.134 361.649 170.365 362.575 172.701 363.132C172.974 363.197 173.217 363.352 173.392 363.573C173.566 363.793 173.66 364.066 173.66 364.347V369.25C173.66 369.939 174.221 370.5 174.91 370.5H181.091C181.78 370.5 182.34 369.939 182.34 369.25V364.347C182.34 364.066 182.435 363.793 182.609 363.573C182.783 363.352 183.026 363.197 183.3 363.132C185.635 362.575 187.867 361.649 189.911 360.389C190.15 360.242 190.432 360.18 190.711 360.212C190.99 360.245 191.25 360.371 191.449 360.57L194.914 364.034C195.15 364.27 195.464 364.4 195.797 364.4C196.131 364.4 196.445 364.27 196.681 364.034L201.05 359.662C201.537 359.175 201.536 358.382 201.049 357.895L197.583 354.429C197.384 354.23 197.258 353.97 197.226 353.691C197.193 353.413 197.255 353.131 197.402 352.891C198.658 350.848 199.581 348.618 200.136 346.284C200.201 346.01 200.356 345.767 200.577 345.592C200.797 345.418 201.07 345.323 201.351 345.323H206.253C206.586 345.323 206.9 345.193 207.136 344.957C207.372 344.721 207.502 344.407 207.502 344.073L207.498 337.892C207.498 337.204 206.938 336.644 206.249 336.644H201.343C201.063 336.644 200.79 336.549 200.57 336.375C200.349 336.201 200.194 335.958 200.128 335.685C199.571 333.355 198.647 331.129 197.39 329.089C197.242 328.85 197.18 328.568 197.213 328.289C197.246 328.01 197.371 327.75 197.57 327.551L201.035 324.086C201.151 323.971 201.243 323.833 201.306 323.681C201.369 323.53 201.401 323.367 201.401 323.203C201.401 323.039 201.369 322.876 201.306 322.724C201.243 322.573 201.151 322.435 201.034 322.319L196.662 317.95C196.175 317.463 195.383 317.463 194.896 317.951L191.429 321.418C191.231 321.616 190.971 321.742 190.692 321.775C190.413 321.808 190.131 321.746 189.892 321.599C187.853 320.345 185.628 319.423 183.299 318.868C183.026 318.803 182.783 318.648 182.609 318.427C182.435 318.207 182.34 317.934 182.34 317.653V312.749C182.34 312.061 181.779 311.5 181.091 311.5H174.909C174.221 311.5 173.66 312.061 173.66 312.749V317.653C173.66 317.934 173.565 318.207 173.391 318.427C173.217 318.648 172.974 318.803 172.701 318.868C170.372 319.423 168.147 320.345 166.108 321.599C165.869 321.746 165.587 321.808 165.308 321.775C165.029 321.742 164.77 321.616 164.571 321.418L161.104 317.951C160.617 317.464 159.825 317.464 159.338 317.95L154.966 322.32C154.729 322.556 154.599 322.869 154.599 323.203C154.599 323.537 154.729 323.851 154.965 324.087L158.43 327.551C158.629 327.75 158.754 328.01 158.787 328.289C158.82 328.568 158.758 328.85 158.61 329.09C157.353 331.129 156.429 333.355 155.872 335.685C155.806 335.959 155.651 336.202 155.43 336.376C155.21 336.55 154.937 336.644 154.657 336.644H149.751C149.063 336.644 148.502 337.204 148.502 337.893L148.499 344.074C148.498 344.238 148.53 344.4 148.593 344.552C148.656 344.704 148.748 344.842 148.864 344.957C148.98 345.074 149.118 345.166 149.269 345.229C149.421 345.292 149.584 345.324 149.748 345.324H154.649C154.93 345.324 155.203 345.418 155.424 345.593C155.644 345.767 155.799 346.011 155.865 346.284C156.419 348.618 157.342 350.848 158.599 352.892C158.746 353.131 158.808 353.413 158.775 353.692C158.742 353.971 158.616 354.23 158.418 354.429L154.951 357.896C154.464 358.383 154.464 359.175 154.951 359.662L159.32 364.034C159.435 364.151 159.573 364.243 159.725 364.306C159.876 364.369 160.039 364.401 160.203 364.4H160.203C160.368 364.401 160.53 364.369 160.682 364.306C160.833 364.243 160.971 364.151 161.087 364.035L164.551 360.57C164.667 360.454 164.805 360.362 164.957 360.299C165.108 360.236 165.271 360.204 165.435 360.204Z" fill="black"/>
</g>
<g clip-path="url(#clip2_2005_59)">
<path fill-rule="evenodd" clip-rule="evenodd" d="M254.108 216.349H288.07C288.375 216.349 288.638 216.457 288.854 216.673L295.074 222.894C295.29 223.109 295.399 223.372 295.399 223.677V270.193C295.399 270.804 294.901 271.301 294.291 271.301H254.108C253.497 271.301 253 270.803 253 270.193V217.457C253 216.846 253.498 216.349 254.108 216.349Z" fill="#ECEFF1"/>
<path fill-rule="evenodd" clip-rule="evenodd" d="M254.108 216.349H256.135V271.301H254.108C253.498 271.301 253 270.803 253 270.193V217.457C253 216.846 253.498 216.349 254.108 216.349Z" fill="#D1D1D6"/>
<path fill-rule="evenodd" clip-rule="evenodd" d="M288.529 216.444C288.65 216.5 288.76 216.578 288.854 216.673L295.074 222.893C295.169 222.987 295.246 223.097 295.303 223.218H289.083C288.936 223.217 288.795 223.159 288.692 223.055C288.588 222.951 288.529 222.811 288.529 222.664V216.444Z" fill="#A79BA7"/>
<path fill-rule="evenodd" clip-rule="evenodd" d="M258.8 257.435H262.536C263.005 257.435 263.387 257.817 263.387 258.286V267.016C263.387 267.484 263.005 267.866 262.536 267.866H258.8C258.331 267.866 257.949 267.484 257.949 267.016V258.286C257.949 257.817 258.331 257.435 258.8 257.435Z" fill="#FE646F"/>
<path fill-rule="evenodd" clip-rule="evenodd" d="M261.118 257.435H262.536C263.005 257.435 263.387 257.817 263.387 258.286V267.016C263.387 267.484 263.005 267.866 262.536 267.866H261.118C261.587 267.866 261.969 267.484 261.969 267.016V258.286C261.969 257.817 261.587 257.435 261.118 257.435Z" fill="#FD4755"/>
<path fill-rule="evenodd" clip-rule="evenodd" d="M272.633 251.97H268.896C268.428 251.97 268.046 252.352 268.046 252.82V267.016C268.046 267.484 268.428 267.866 268.896 267.866H272.633C273.101 267.866 273.483 267.484 273.483 267.016V252.82C273.483 252.352 273.101 251.97 272.633 251.97Z" fill="#FFE177"/>
<path fill-rule="evenodd" clip-rule="evenodd" d="M272.633 251.97H271.215C271.683 251.97 272.066 252.352 272.066 252.82V267.016C272.066 267.484 271.683 267.866 271.215 267.866H272.633C273.101 267.866 273.483 267.484 273.483 267.016V252.82C273.483 252.352 273.101 251.97 272.633 251.97Z" fill="#FFD064"/>
<path fill-rule="evenodd" clip-rule="evenodd" d="M282.729 246.263H278.993C278.524 246.263 278.142 246.645 278.142 247.113V267.016C278.142 267.484 278.524 267.866 278.993 267.866H282.729C283.197 267.866 283.579 267.484 283.579 267.016V247.113C283.579 246.645 283.197 246.263 282.729 246.263Z" fill="#6CF5C2"/>
<path fill-rule="evenodd" clip-rule="evenodd" d="M282.729 246.263H281.311C281.78 246.263 282.162 246.645 282.162 247.113V267.016C282.162 267.484 281.78 267.866 281.311 267.866H282.729C283.197 267.866 283.579 267.484 283.579 267.016V247.113C283.58 246.645 283.197 246.263 282.729 246.263Z" fill="#00E499"/>
<path d="M266.657 236.55C270.748 235.884 273.524 232.027 272.858 227.936C272.191 223.845 268.335 221.069 264.244 221.735C260.153 222.401 257.377 226.258 258.043 230.349C258.709 234.44 262.566 237.216 266.657 236.55Z" fill="#FFC338"/>
<path fill-rule="evenodd" clip-rule="evenodd" d="M265.454 221.636C269.599 221.636 272.959 224.996 272.959 229.141C272.959 233.286 269.599 236.646 265.454 236.646C265.25 236.646 265.049 236.638 264.849 236.622C268.711 236.314 271.749 233.082 271.749 229.141C271.749 225.2 268.711 221.969 264.849 221.661C265.05 221.644 265.252 221.636 265.454 221.636Z" fill="#F5B829"/>
<path d="M308.213 270.874C314.583 264.505 314.583 254.179 308.213 247.809C301.844 241.44 291.518 241.44 285.149 247.809C278.779 254.179 278.779 264.505 285.149 270.874C291.518 277.243 301.844 277.243 308.213 270.874Z" fill="#8AC9FE"/>
<path fill-rule="evenodd" clip-rule="evenodd" d="M296.691 243.033C305.698 243.033 313 250.335 313 259.342C313 268.35 305.698 275.651 296.691 275.651C296.248 275.651 295.809 275.633 295.375 275.599C303.768 274.929 310.369 267.907 310.369 259.342C310.369 250.778 303.768 243.755 295.375 243.086C295.809 243.051 296.248 243.033 296.691 243.033Z" fill="#60B7FF"/>
<path d="M296.691 254.531C297.792 254.531 298.685 253.638 298.685 252.537C298.685 251.436 297.792 250.543 296.691 250.543C295.59 250.543 294.697 251.436 294.697 252.537C294.697 253.638 295.59 254.531 296.691 254.531Z" fill="#685E68"/>
<path fill-rule="evenodd" clip-rule="evenodd" d="M296.691 250.543C297.792 250.543 298.685 251.436 298.685 252.537C298.685 253.638 297.792 254.531 296.691 254.531C296.556 254.531 296.421 254.517 296.289 254.49C297.197 254.304 297.88 253.501 297.88 252.537C297.88 251.574 297.197 250.77 296.289 250.584C296.421 250.557 296.556 250.543 296.691 250.543Z" fill="#544854"/>
<path fill-rule="evenodd" clip-rule="evenodd" d="M296.693 263.599C299.141 263.599 301.386 265.01 302.453 267.212C302.756 267.839 302.291 268.558 301.609 268.557L291.778 268.559C291.046 268.559 290.605 267.762 290.966 267.145C292.048 264.98 294.272 263.599 296.693 263.599Z" fill="#837683"/>
<path fill-rule="evenodd" clip-rule="evenodd" d="M296.693 263.599C299.141 263.599 301.386 265.01 302.453 267.212C302.756 267.839 302.291 268.558 301.609 268.557H300.434C301.116 268.558 301.581 267.839 301.278 267.212C300.297 265.188 298.32 263.832 296.106 263.626C296.301 263.608 296.497 263.599 296.693 263.599Z" fill="#685E68"/>
<path fill-rule="evenodd" clip-rule="evenodd" d="M284.019 258.821C283.986 258.685 283.985 258.543 284.015 258.405C284.045 258.268 284.106 258.139 284.193 258.029C284.28 257.919 284.391 257.83 284.517 257.768C284.643 257.707 284.782 257.675 284.923 257.675H291.295V257.677C291.868 257.677 292.307 258.192 292.21 258.761C291.868 260.749 290.126 262.216 288.109 262.216C286.115 262.215 284.386 260.781 284.019 258.821Z" fill="#FFE177"/>
<path fill-rule="evenodd" clip-rule="evenodd" d="M290.133 257.675H291.295V257.677C291.868 257.677 292.307 258.192 292.21 258.761C291.868 260.749 290.126 262.216 288.109 262.216C287.915 262.216 287.721 262.202 287.528 262.174C289.29 261.924 290.74 260.555 291.048 258.761C291.145 258.192 290.706 257.677 290.133 257.677V257.675Z" fill="#FFD064"/>
<path fill-rule="evenodd" clip-rule="evenodd" d="M301.183 258.821C301.15 258.684 301.148 258.542 301.178 258.405C301.209 258.268 301.269 258.139 301.356 258.029C301.443 257.918 301.554 257.829 301.681 257.768C301.807 257.707 301.946 257.675 302.086 257.675H308.459V257.676C308.594 257.676 308.727 257.706 308.85 257.762C308.972 257.819 309.081 257.902 309.168 258.006C309.255 258.109 309.319 258.23 309.354 258.36C309.39 258.491 309.396 258.627 309.374 258.76C309.032 260.748 307.289 262.215 305.273 262.215C303.279 262.215 301.55 260.781 301.183 258.821Z" fill="#FFE177"/>
<path fill-rule="evenodd" clip-rule="evenodd" d="M307.297 257.675H308.459V257.676C308.594 257.676 308.727 257.706 308.85 257.762C308.972 257.819 309.081 257.902 309.168 258.006C309.255 258.109 309.319 258.23 309.354 258.36C309.39 258.491 309.396 258.627 309.374 258.76C309.032 260.748 307.289 262.215 305.273 262.215C305.078 262.215 304.884 262.201 304.692 262.174C306.454 261.924 307.903 260.554 308.212 258.76C308.235 258.627 308.228 258.491 308.193 258.36C308.157 258.23 308.094 258.109 308.006 258.006C307.919 257.902 307.811 257.819 307.688 257.762C307.566 257.706 307.432 257.676 307.297 257.676V257.675Z" fill="#FFD064"/>
<path fill-rule="evenodd" clip-rule="evenodd" d="M275.695 234.896C275.695 234.631 275.801 234.377 275.988 234.189C276.176 234.001 276.43 233.896 276.695 233.896H291.307C291.859 233.896 292.307 234.344 292.307 234.896C292.307 235.449 291.859 235.896 291.307 235.896H276.695C276.43 235.896 276.176 235.791 275.988 235.603C275.801 235.416 275.695 235.161 275.695 234.896ZM275.695 231.06C275.695 230.795 275.801 230.54 275.988 230.353C276.176 230.165 276.43 230.06 276.695 230.06H291.307C291.859 230.06 292.307 230.507 292.307 231.06C292.307 231.612 291.859 232.06 291.307 232.06H276.695C276.43 232.06 276.176 231.954 275.988 231.767C275.801 231.579 275.695 231.325 275.695 231.06ZM275.695 227.224C275.695 226.671 276.143 226.224 276.695 226.224H291.307C291.572 226.224 291.826 226.329 292.014 226.516C292.201 226.704 292.307 226.958 292.307 227.224C292.307 227.355 292.281 227.485 292.23 227.606C292.18 227.728 292.107 227.838 292.014 227.931C291.921 228.024 291.811 228.097 291.689 228.148C291.568 228.198 291.438 228.224 291.307 228.224H276.695C276.143 228.224 275.695 227.776 275.695 227.224ZM275.695 223.388C275.695 223.122 275.801 222.868 275.988 222.68C276.176 222.493 276.43 222.388 276.695 222.388H284.496C284.761 222.388 285.015 222.493 285.203 222.68C285.39 222.868 285.496 223.122 285.496 223.388C285.496 223.653 285.39 223.907 285.203 224.095C285.015 224.282 284.761 224.388 284.496 224.388H276.695C276.143 224.388 275.695 223.939 275.695 223.388ZM265.455 222.636C269.041 222.636 271.959 225.555 271.959 229.141C271.959 232.729 269.041 235.646 265.455 235.646C261.868 235.646 258.95 232.729 258.95 229.141C258.95 225.555 261.868 222.636 265.455 222.636ZM265.455 237.646C270.144 237.646 273.959 233.831 273.959 229.141C273.959 224.453 270.144 220.636 265.455 220.636C260.765 220.636 256.95 224.453 256.95 229.141C256.95 233.831 260.765 237.646 265.455 237.646ZM266.758 231.398C266.549 231.64 266.043 231.817 265.529 231.829C264.94 231.846 264.191 231.614 264.017 230.919C263.986 230.791 263.93 230.671 263.852 230.565C263.774 230.459 263.675 230.369 263.563 230.301C263.45 230.233 263.325 230.188 263.195 230.168C263.065 230.149 262.932 230.155 262.804 230.187C262.677 230.219 262.557 230.275 262.451 230.354C262.345 230.432 262.256 230.531 262.188 230.644C262.121 230.757 262.076 230.882 262.057 231.012C262.038 231.142 262.045 231.275 262.077 231.402C262.364 232.554 263.267 233.398 264.455 233.704V233.891C264.455 234.443 264.902 234.891 265.455 234.891C266.007 234.891 266.455 234.443 266.455 233.891V233.721C267.199 233.552 267.846 233.198 268.271 232.706C268.733 232.172 268.93 231.505 268.842 230.777C268.667 229.341 267.585 228.45 265.624 228.128C264.325 227.915 264.303 227.473 264.296 227.328C264.267 226.731 264.909 226.539 265.107 226.495C265.554 226.393 266.401 226.437 266.742 227.249C266.845 227.493 267.04 227.687 267.286 227.787C267.531 227.888 267.807 227.886 268.051 227.784C268.296 227.681 268.489 227.485 268.59 227.24C268.69 226.995 268.689 226.719 268.586 226.475C268.146 225.426 267.331 224.834 266.455 224.589V224.392C266.455 223.84 266.007 223.392 265.455 223.392C264.902 223.392 264.455 223.84 264.455 224.392V224.599C263.093 224.992 262.234 226.105 262.298 227.425C262.338 228.246 262.781 229.687 265.3 230.101C266.774 230.344 266.832 230.818 266.856 231.019C266.881 231.224 266.824 231.322 266.758 231.398ZM305.273 260.389C304.91 260.389 304.552 260.31 304.223 260.157C303.895 260.004 303.604 259.78 303.371 259.502H307.174C306.942 259.78 306.651 260.004 306.322 260.157C305.993 260.31 305.635 260.389 305.273 260.389ZM305.273 254.68L306.946 257.503H303.6L305.273 254.68ZM293.421 266.719C294.292 265.906 295.448 265.44 296.693 265.44C297.939 265.44 299.095 265.906 299.966 266.719H293.421ZM296.691 251.966C296.842 251.966 296.987 252.027 297.094 252.134C297.201 252.241 297.262 252.386 297.262 252.537C297.262 252.689 297.202 252.834 297.095 252.941C296.987 253.048 296.842 253.108 296.691 253.109C296.539 253.108 296.394 253.048 296.287 252.941C296.18 252.834 296.12 252.689 296.12 252.537C296.12 252.386 296.18 252.241 296.287 252.134C296.394 252.027 296.539 251.966 296.691 251.966ZM288.109 260.389C287.746 260.389 287.388 260.31 287.059 260.157C286.731 260.004 286.44 259.78 286.207 259.502H290.011C289.778 259.78 289.487 260.004 289.158 260.157C288.83 260.31 288.471 260.389 288.109 260.389ZM288.109 254.68L289.782 257.503H286.436L288.109 254.68ZM309.561 257.992L306.142 252.225C306.073 252.103 305.979 251.996 305.865 251.914C305.825 251.884 305.783 251.858 305.739 251.835C305.566 251.743 305.368 251.704 305.173 251.724H305.172C305.115 251.73 305.06 251.74 305.006 251.755C303.397 252.201 302.875 252.004 302.153 251.73C301.447 251.462 300.593 251.14 298.964 251.339C298.532 250.524 297.676 249.966 296.691 249.966C295.705 249.966 294.848 250.524 294.417 251.34C292.789 251.143 291.934 251.464 291.228 251.73C290.507 252.004 289.985 252.201 288.38 251.756C288.367 251.752 288.354 251.749 288.34 251.746H288.339C288.338 251.745 288.337 251.745 288.337 251.745C288.294 251.735 288.251 251.728 288.208 251.724H288.207C288.009 251.703 287.81 251.743 287.635 251.838C287.597 251.859 287.56 251.882 287.524 251.908C287.407 251.991 287.31 252.1 287.239 252.225L283.82 257.992C283.699 258.197 283.655 258.438 283.695 258.673C284.065 260.825 285.922 262.389 288.109 262.389C290.296 262.389 292.152 260.825 292.523 258.673C292.563 258.438 292.518 258.197 292.397 257.992L290.04 254.016C290.869 254.005 291.423 253.795 291.937 253.601C292.536 253.374 293.069 253.174 294.247 253.333C294.362 253.683 294.55 254.004 294.799 254.276C295.048 254.547 295.352 254.762 295.691 254.906L295.693 263.516C293.496 263.848 291.548 265.253 290.563 267.281C290.489 267.434 290.455 267.603 290.465 267.772C290.474 267.941 290.526 268.105 290.616 268.249C290.706 268.393 290.83 268.511 290.979 268.593C291.127 268.676 291.294 268.719 291.463 268.719H301.924C302.093 268.719 302.26 268.676 302.408 268.593C302.556 268.511 302.681 268.393 302.771 268.249C302.861 268.105 302.913 267.941 302.922 267.772C302.931 267.603 302.897 267.434 302.823 267.281C301.839 265.251 299.89 263.848 297.693 263.516L297.691 254.906C298.03 254.762 298.334 254.547 298.583 254.275C298.832 254.004 299.02 253.683 299.135 253.333C300.313 253.174 300.845 253.374 301.445 253.601C301.959 253.795 302.512 254.005 303.341 254.016L300.984 257.992C300.863 258.197 300.818 258.438 300.859 258.673C301.229 260.825 303.085 262.389 305.273 262.389C307.46 262.389 309.316 260.825 309.687 258.673C309.727 258.438 309.682 258.197 309.561 257.992ZM296.691 274.651C305.132 274.651 312 267.784 312 259.342C312 250.901 305.132 244.034 296.691 244.034C288.249 244.034 281.382 250.901 281.382 259.342C281.382 267.784 288.249 274.651 296.691 274.651ZM282.58 249.329C280.567 252.157 279.382 255.614 279.382 259.342C279.382 262.038 280.001 264.59 281.105 266.866H279.142V247.264H282.58V249.329ZM254 270.194C254 270.251 254.05 270.301 254.108 270.301H283.303C282.926 269.841 282.573 269.362 282.245 268.866H278.142C277.877 268.866 277.622 268.761 277.435 268.573C277.247 268.386 277.142 268.131 277.142 267.866V246.264C277.142 245.998 277.247 245.744 277.435 245.557C277.622 245.369 277.877 245.264 278.142 245.264H283.579C284.132 245.264 284.579 245.711 284.579 246.264V246.989C287.188 244.431 290.601 242.69 294.398 242.185V224.219H289.083C288.226 224.219 287.529 223.521 287.529 222.664V217.349H254.108C254.05 217.349 254 217.399 254 217.456V270.194ZM292.985 222.219H289.529V218.762L292.985 222.219ZM296.691 242.034C296.593 242.034 296.496 242.035 296.399 242.036V223.677C296.399 223.106 296.185 222.59 295.781 222.186L289.561 215.966C289.157 215.562 288.642 215.349 288.07 215.349H254.108C252.945 215.349 252 216.294 252 217.456V270.194C252 271.356 252.945 272.301 254.108 272.301H285.23C288.285 275.006 292.299 276.651 296.691 276.651C306.235 276.651 314 268.886 314 259.342C314 249.797 306.235 242.034 296.691 242.034ZM283.446 237.536C283.546 237.646 283.62 237.776 283.664 237.917C283.707 238.059 283.719 238.208 283.697 238.355L283.202 241.759C283.164 242.021 283.023 242.258 282.81 242.416C282.597 242.575 282.331 242.643 282.068 242.605C281.522 242.525 281.143 242.017 281.223 241.471L281.316 240.827C275.112 246.171 267.776 250.34 259.476 253.23C259.37 253.267 259.259 253.286 259.147 253.286C258.939 253.286 258.737 253.221 258.568 253.101C258.398 252.981 258.271 252.811 258.203 252.615C258.021 252.094 258.297 251.524 258.818 251.341C266.853 248.544 273.952 244.517 279.953 239.362L279.328 239.396C278.776 239.424 278.305 239.004 278.275 238.452C278.245 237.9 278.667 237.429 279.219 237.399L282.654 237.212C282.801 237.204 282.949 237.229 283.086 237.285C283.223 237.341 283.346 237.427 283.446 237.536ZM262.387 266.866H258.95V258.435H262.387V266.866ZM263.387 256.435C263.652 256.435 263.907 256.54 264.094 256.728C264.282 256.915 264.387 257.17 264.387 257.435V267.866C264.387 268.419 263.939 268.866 263.387 268.866H257.95C257.684 268.866 257.43 268.761 257.243 268.573C257.055 268.386 256.95 268.131 256.95 267.866V257.435C256.95 257.17 257.055 256.915 257.243 256.728C257.43 256.54 257.684 256.435 257.95 256.435H263.387ZM272.483 266.866H269.046V252.97H272.483V266.866ZM273.483 250.97C273.749 250.97 274.003 251.075 274.19 251.263C274.378 251.45 274.483 251.705 274.483 251.97V267.866C274.483 268.131 274.378 268.386 274.19 268.573C274.003 268.761 273.749 268.866 273.483 268.866H268.046C267.781 268.866 267.526 268.761 267.339 268.573C267.151 268.386 267.046 268.131 267.046 267.866V251.97C267.046 251.705 267.151 251.45 267.339 251.263C267.526 251.075 267.781 250.97 268.046 250.97H273.483Z" fill="black"/>
</g>
<path d="M404.54 150.866V169.61C404.542 170.054 404.456 170.494 404.288 170.905C404.119 171.316 403.871 171.689 403.558 172.004C403.245 172.319 402.873 172.569 402.463 172.74C402.054 172.911 401.614 172.999 401.17 173H362.83C362.386 172.999 361.946 172.911 361.537 172.74C361.127 172.569 360.755 172.319 360.442 172.004C360.129 171.689 359.881 171.316 359.712 170.905C359.544 170.494 359.458 170.054 359.46 169.61V116.39C359.458 115.946 359.544 115.506 359.712 115.095C359.881 114.684 360.129 114.311 360.442 113.996C360.755 113.681 361.127 113.431 361.537 113.26C361.946 113.089 362.386 113.001 362.83 113H395.02V122.04H404.54V146.216" fill="#E3E7E8"/>
<path d="M401.17 174H362.83C361.669 173.996 360.557 173.532 359.737 172.709C358.918 171.886 358.459 170.771 358.46 169.61V116.39C358.459 115.229 358.918 114.114 359.737 113.291C360.557 112.468 361.669 112.004 362.83 112H395.02C395.285 112 395.54 112.105 395.727 112.293C395.915 112.48 396.02 112.735 396.02 113V121.04H404.54C404.805 121.04 405.06 121.145 405.247 121.333C405.435 121.52 405.54 121.775 405.54 122.04V146.216C405.54 146.481 405.435 146.736 405.247 146.923C405.06 147.111 404.805 147.216 404.54 147.216C404.275 147.216 404.02 147.111 403.833 146.923C403.645 146.736 403.54 146.481 403.54 146.216V123.04H395.02C394.755 123.04 394.5 122.935 394.313 122.747C394.125 122.56 394.02 122.305 394.02 122.04V114H362.83C362.199 114.003 361.595 114.257 361.151 114.705C360.707 115.153 360.458 115.759 360.46 116.39V169.61C360.458 170.241 360.707 170.847 361.151 171.295C361.595 171.743 362.199 171.997 362.83 172H401.17C401.801 171.997 402.405 171.743 402.849 171.295C403.293 170.847 403.542 170.241 403.54 169.61V150.866C403.54 150.601 403.645 150.346 403.833 150.159C404.02 149.971 404.275 149.866 404.54 149.866C404.805 149.866 405.06 149.971 405.247 150.159C405.435 150.346 405.54 150.601 405.54 150.866V169.61C405.541 170.771 405.082 171.886 404.263 172.709C403.443 173.532 402.331 173.996 401.17 174Z" fill="#464D57"/>
<path d="M404.54 122.04H395.02V113H395.03L404.54 122.04Z" fill="#B9BBBA"/>
<path d="M404.54 123.04H395.02C394.755 123.04 394.5 122.935 394.313 122.747C394.125 122.56 394.02 122.305 394.02 122.04V113C394.02 112.735 394.125 112.48 394.313 112.293C394.5 112.105 394.755 112 395.02 112C395.28 112 395.53 112.098 395.72 112.275L405.23 121.315C405.375 121.453 405.475 121.631 405.518 121.826C405.561 122.022 405.544 122.225 405.47 122.411C405.396 122.597 405.268 122.756 405.102 122.868C404.936 122.98 404.74 123.04 404.54 123.04ZM396.02 121.04H402.037L396.02 115.321V121.04ZM363.711 145.725C363.541 145.725 363.373 145.681 363.225 145.598C363.076 145.515 362.951 145.395 362.862 145.25C362.772 145.105 362.721 144.94 362.714 144.77C362.706 144.6 362.742 144.43 362.818 144.278L366.673 136.561C366.733 136.441 366.816 136.335 366.917 136.248C367.019 136.161 367.137 136.096 367.264 136.055C367.391 136.015 367.526 136 367.659 136.012C367.792 136.024 367.921 136.063 368.039 136.126L375.115 139.906L379.815 131.006C379.877 130.889 379.961 130.785 380.064 130.701C380.166 130.616 380.284 130.553 380.411 130.515C380.538 130.477 380.671 130.464 380.803 130.478C380.935 130.492 381.063 130.531 381.179 130.595L383.458 131.841L386.735 126.068L385.682 126.376C385.554 126.419 385.42 126.435 385.286 126.424C385.152 126.413 385.021 126.376 384.902 126.313C384.783 126.251 384.678 126.165 384.592 126.062C384.507 125.958 384.444 125.838 384.406 125.709C384.368 125.58 384.357 125.444 384.372 125.311C384.388 125.177 384.431 125.048 384.497 124.932C384.564 124.815 384.653 124.713 384.76 124.631C384.867 124.55 384.99 124.491 385.12 124.458L388.544 123.458C388.735 123.402 388.938 123.405 389.128 123.465C389.317 123.526 389.485 123.641 389.608 123.797C389.732 123.953 389.806 124.143 389.821 124.341C389.836 124.539 389.792 124.738 389.694 124.911L384.711 133.688C384.581 133.916 384.367 134.084 384.115 134.156C383.863 134.228 383.592 134.198 383.362 134.072L381.11 132.841L376.417 141.734C376.355 141.85 376.272 141.954 376.17 142.037C376.069 142.121 375.952 142.184 375.826 142.223C375.7 142.262 375.568 142.275 375.436 142.262C375.305 142.249 375.178 142.211 375.062 142.149L368 138.374L364.6 145.174C364.517 145.339 364.39 145.478 364.233 145.575C364.076 145.672 363.896 145.724 363.711 145.725Z" fill="#464D57"/>
<path d="M389.826 128.837C389.61 128.837 389.4 128.767 389.227 128.637C389.054 128.507 388.928 128.325 388.867 128.118L387.867 124.694C387.796 124.44 387.827 124.169 387.955 123.939C388.082 123.708 388.295 123.537 388.548 123.463C388.801 123.389 389.072 123.418 389.304 123.543C389.536 123.668 389.709 123.879 389.786 124.131L390.786 127.555C390.861 127.809 390.831 128.083 390.704 128.316C390.577 128.549 390.362 128.721 390.108 128.796C390.016 128.823 389.921 128.837 389.826 128.837Z" fill="#464D57"/>
<path d="M391.504 132.11H398.284V165.988H391.504V132.11Z" fill="#FBF19C"/>
<path d="M398.283 166.988H391.5C391.235 166.988 390.98 166.883 390.793 166.695C390.605 166.507 390.5 166.253 390.5 165.988V132.11C390.5 131.845 390.605 131.59 390.793 131.403C390.98 131.215 391.235 131.11 391.5 131.11H398.28C398.545 131.11 398.8 131.215 398.987 131.403C399.175 131.59 399.28 131.845 399.28 132.11V165.988C399.28 166.253 399.175 166.506 398.988 166.694C398.801 166.881 398.548 166.987 398.283 166.988ZM392.503 164.988H397.283V133.11H392.5L392.503 164.988Z" fill="#464D57"/>
<path d="M378.61 151.29V144.11H385.39V165.988H378.61V156.106" fill="#FFDBAB"/>
<path d="M385.39 166.988H378.61C378.345 166.988 378.09 166.883 377.903 166.695C377.715 166.507 377.61 166.253 377.61 165.988V156.106C377.61 155.841 377.715 155.586 377.903 155.399C378.09 155.211 378.345 155.106 378.61 155.106C378.875 155.106 379.13 155.211 379.317 155.399C379.505 155.586 379.61 155.841 379.61 156.106V164.988H384.39V145.11H379.61V151.29C379.61 151.555 379.505 151.809 379.317 151.997C379.13 152.185 378.875 152.29 378.61 152.29C378.345 152.29 378.09 152.185 377.903 151.997C377.715 151.809 377.61 151.555 377.61 151.29V144.11C377.61 143.845 377.715 143.59 377.903 143.403C378.09 143.215 378.345 143.11 378.61 143.11H385.39C385.655 143.11 385.91 143.215 386.097 143.403C386.285 143.59 386.39 143.845 386.39 144.11V165.988C386.39 166.253 386.285 166.507 386.097 166.695C385.91 166.883 385.655 166.988 385.39 166.988Z" fill="#464D57"/>
<path d="M365.717 153.11H372.497V165.988H365.717V153.11Z" fill="#FF8695"/>
<path d="M372.5 166.988H365.72C365.455 166.988 365.2 166.883 365.013 166.695C364.825 166.507 364.72 166.253 364.72 165.988V153.11C364.72 152.845 364.825 152.59 365.013 152.403C365.2 152.215 365.455 152.11 365.72 152.11H372.5C372.765 152.11 373.02 152.215 373.207 152.403C373.395 152.59 373.5 152.845 373.5 153.11V165.988C373.5 166.253 373.395 166.507 373.207 166.695C373.02 166.883 372.765 166.988 372.5 166.988ZM366.72 164.988H371.5V154.11H366.72V164.988Z" fill="#464D57"/>
<defs>
<clipPath id="clip0_2005_59">
<rect width="64" height="64" fill="white" transform="translate(63 408)"/>
</clipPath>
<clipPath id="clip1_2005_59">
<rect width="64" height="64" fill="white" transform="translate(146 309)"/>
</clipPath>
<clipPath id="clip2_2005_59">
<rect width="64" height="64" fill="white" transform="translate(251 214)"/>
</clipPath>
</defs>
</svg>
