<svg width="687" height="699" viewBox="0 0 687 699" fill="none" xmlns="http://www.w3.org/2000/svg">
<path fill-rule="evenodd" clip-rule="evenodd" d="M269.66 115.045C327.901 113.211 366.782 167.451 413.255 202.638C473.069 247.927 559.375 272.993 575.189 346.379C592.545 426.921 562.495 526.249 492.244 569.188C425.559 609.947 346.153 549.07 269.66 533.125C218.288 522.416 160.117 530.3 123.802 492.384C87.9376 454.94 88.7585 398.212 90.7926 346.379C92.7218 297.216 104.744 250.318 134.828 211.41C169.966 165.965 212.279 116.853 269.66 115.045Z" fill="#FFEAEB"/>
<path fill-rule="evenodd" clip-rule="evenodd" d="M541.793 175.993C570.788 232.182 535.874 295.572 523.148 357.508C506.769 437.224 522.55 533.453 458.13 583.181C387.426 637.759 276.201 654.668 201.377 605.893C130.35 559.594 152.832 453.415 132.709 371.053C119.195 315.74 84.3135 262.441 104.452 209.181C124.341 156.583 180.232 130.92 231.9 108.729C280.906 87.6809 332.409 77.5752 384.53 88.8884C445.408 102.102 513.225 120.634 541.793 175.993Z" fill="#FFEAEB" fill-opacity="0.4"/>
</svg>
