<svg width="64" height="64" viewBox="0 0 64 64" fill="none" xmlns="http://www.w3.org/2000/svg">
<path d="M14.3543 21.3944C15.2686 20.8458 16.2743 19.2916 16.2743 17.6458C16.2743 14.9944 14.1714 12.983 11.6114 12.983C9.05143 12.983 6.94858 15.0858 6.94858 17.6458C6.94858 18.9258 7.40572 20.023 8.22858 20.8458C8.68572 20.8458 11.1543 20.023 14.3543 21.3944ZM37.4857 14.4459C38.4914 13.5316 39.1314 12.1601 39.1314 10.6059C39.1314 7.77156 36.8457 5.48585 34.0114 5.48585C32.9821 5.48381 31.976 5.79266 31.1251 6.37195C30.2742 6.95125 29.6181 7.77399 29.2426 8.73245C28.8671 9.69092 28.7898 10.7404 29.0208 11.7436C29.2518 12.7467 29.7803 13.6567 30.5372 14.3544C32.8229 13.623 35.2 13.7144 37.4857 14.4459ZM50.7429 28.0687C52.7543 27.4287 54.8572 27.4287 56.8686 28.1601C57.8743 27.3373 58.6057 25.9658 58.6057 24.503C58.6057 21.8516 56.5029 19.7487 53.8514 19.7487C51.2914 19.7487 49.0972 21.8516 49.0972 24.503C49.0972 25.9658 49.7372 27.2459 50.7429 28.0687ZM57.2343 29.3487C54.6743 28.1601 52.1143 28.343 49.8286 29.4401C49.92 29.5316 50.56 30.263 50.4686 30.1716C50.9257 29.8973 51.5657 29.8058 51.6572 29.8058H55.3143C55.7714 29.8058 56.2286 29.9887 56.5943 30.1716C56.6857 29.9887 57.3257 29.2573 57.2343 29.3487ZM31.4514 15.0859C30.8114 15.2687 30.1714 15.4516 29.5314 15.8173C29.5314 15.9087 30.2629 17.5544 30.2629 17.463C30.72 17.1887 31.2686 17.0059 31.8171 17.0059C35.3829 17.0973 36.2972 16.7316 37.3943 17.3716C37.3943 17.2801 37.8514 15.3601 37.8514 15.4516C37.4857 15.2687 37.12 15.1773 36.7543 15.0859C34.8343 14.6287 33.0972 14.6287 31.4514 15.0859ZM14.9943 22.6744C14.72 23.4058 14.72 23.7716 14.6286 23.863C15.2686 24.8687 15.0857 25.6916 15.0857 26.1487C15.0857 26.2401 14.9029 31.9087 14.9029 31.543C15.7257 31.0858 16.2743 30.3544 16.64 29.623C17.0057 28.8916 16.64 29.623 16.64 29.5316C16.64 29.4401 17.1886 25.5087 17.1886 25.783C17.3714 25.6916 17.5543 25.6001 17.6457 25.5087L17.5543 26.423C17.7372 26.3316 17.8286 26.423 18.0114 26.5144L18.1943 25.143C19.9314 23.7716 22.1257 20.663 23.3143 13.8059C23.4057 13.0744 22.9486 12.343 22.2171 12.2516C21.4857 12.0687 20.7543 12.6173 20.6629 13.3487C20.1143 16.5487 18.8343 21.6687 16 23.4059C15.6343 23.1316 15.2686 22.8573 14.9943 22.6744ZM14.1714 22.3087C12.16 21.3944 9.69144 21.2116 7.31429 22.0344C7.31429 22.1259 7.49715 22.583 7.49715 22.4916C8.32001 22.0344 9.78286 22.4001 10.1486 22.4001C12.3429 22.6744 12.9829 22.4916 13.8971 23.1316C13.8971 23.1316 14.1714 22.2173 14.1714 22.3087Z" fill="#244C6E"/>
<path d="M59.52 30.7201C59.4286 30.5373 58.3314 29.8973 58.1486 29.8059C58.0571 29.8973 57.2343 30.8116 57.3257 30.7201C58.1486 31.7259 57.7829 32.2744 58.24 37.0287C58.24 37.5773 58.4229 38.1259 58.1486 38.8573C57.7829 39.863 56.8686 40.503 55.7714 40.503H51.4743C50.4686 40.503 49.5543 39.9544 49.1886 39.0402C49.0057 38.6744 48.9143 38.2173 48.9143 37.7602C48.9143 37.6687 49.28 32.0002 49.28 32.0916C49.3714 31.4516 49.5543 30.9944 49.8286 30.6287C49.7371 30.5373 49.0057 29.7144 49.0971 29.8059C49.0057 29.8973 48.9143 29.8973 48.7314 29.9887C46.6286 27.9773 46.2629 23.4059 46.5371 20.5716C46.6286 19.8402 46.08 19.1087 45.3486 19.0173C44.6171 18.9259 43.8857 19.4744 43.7943 20.2059C43.3371 24.1373 44.0686 30.1716 47.36 32.4573C47.5429 32.5487 47.6343 32.6402 47.8171 32.7316L48.4571 45.9887V48.0002C48.4571 51.2002 48.1829 56.5944 47.36 58.9716C46.9029 60.1601 47.5429 61.4401 48.7314 61.8973C49.92 62.3544 51.2914 61.7144 51.6571 60.5259C52.7543 57.6001 53.0286 51.9316 53.0286 48.6402V47.7259H54.2171V48.6402C54.2171 52.3887 54.1257 57.4173 53.6686 59.063C53.3029 60.5259 54.4 61.8973 55.8629 61.8973C56.8686 61.8973 57.8743 61.1659 58.0571 60.1602C58.6057 57.6916 58.6971 50.8344 58.6971 48.0916V46.9944C58.6971 46.8116 58.6971 46.7202 58.6057 46.5373C58.6971 46.3544 58.6971 46.263 58.6971 46.0802L59.0629 39.4059C60.0686 39.3144 62.4457 37.6687 62.5371 35.4744C62.72 33.3716 60.6171 31.2687 59.52 30.7201ZM59.3371 36.1144L59.4286 34.1944C59.6114 34.4687 59.7943 34.6516 59.8857 34.9259V35.5659C59.7029 35.7487 59.52 36.023 59.3371 36.1144Z" fill="#244C6E"/>
<path d="M45.2571 2.01154C44.5257 1.92011 43.7943 2.37725 43.7029 3.20011C43.0629 7.31439 40.5943 12.983 38.8571 16.0915C38.7657 16.0001 38.6743 16.0001 38.5829 15.9087C38.5829 16.0001 38.3086 17.1887 38.3086 17.0973L38.0343 18.103C39.04 19.383 38.5829 20.023 39.2229 26.3315C39.3143 28.0687 38.0343 29.5315 36.2971 29.5315H31.2686C30.08 29.5315 28.9829 28.8001 28.5257 27.703C28.0686 26.6058 28.8 19.7487 28.8 19.8401C28.8 19.2915 28.9829 18.9258 28.9829 18.9258C29.0743 18.6515 29.2571 18.3773 29.44 18.103C29.44 18.0115 28.6171 16.183 28.6171 16.2744C27.7029 16.823 27.0629 17.2801 26.9714 17.3715V17.463C25.9657 17.9201 17.92 28.343 27.4286 38.3087C27.7943 38.6744 28.3429 38.7658 28.4343 38.7658C28.3429 43.5201 28.3429 52.1144 29.8971 57.6915C30.1714 58.6973 31.0857 59.3373 32.0914 59.3373C33.6457 59.3373 34.7429 57.8744 34.2857 56.4115C32.64 50.3773 33.0057 40.7773 33.0057 37.2115H34.9257C35.2914 43.1544 35.7486 51.1087 35.3829 57.5087C35.2914 58.7887 36.2971 59.8858 37.5771 59.8858C38.4914 60.0687 39.8629 59.1544 39.9543 57.6915C40.32 50.8344 39.7714 39.3144 39.4971 36.3887C40.32 35.383 39.7714 35.6572 40.8686 18.0115C43.1543 13.7144 45.7143 8.41154 46.4457 3.47439C46.5371 2.83439 45.9886 2.10297 45.2571 2.01154ZM25.5086 27.703C25.5086 26.0573 25.8743 24.5944 26.3314 23.4058C26.5143 22.8573 26.88 22.2173 27.1543 21.6687L27.7943 34.5601C26.4229 32.4573 25.5086 30.263 25.5086 27.703ZM15.9086 41.143L15.5429 40.7772L15.1771 40.4115L16.4571 31.543C16.3657 31.6344 16.2743 31.7258 15.9086 32.0001C15.7257 32.183 15.5429 32.2744 15.36 32.3658C15.1771 32.4573 14.8114 32.6401 14.6286 32.6401C14.1714 33.6458 13.0743 34.2858 11.8857 34.103L7.31429 33.6458C6.49143 33.5544 5.85143 33.1887 5.39429 32.5487C4.48 31.3601 5.02857 30.0801 5.02857 29.7144C5.02857 29.623 5.66857 26.2401 5.57714 26.3315V26.2401C5.85143 25.3258 5.57714 24.1373 6.67429 23.1315C6.67429 23.0401 6.4 22.4001 6.49143 22.4915C5.02857 23.223 5.12 23.223 4.84572 23.4058V23.4973C1.37143 25.9658 7.15256e-07 30.4458 3.10857 36.5715C3.2 36.663 3.2 36.7544 3.29143 36.8458L3.2 39.5887C3.2 41.0515 4.20571 42.3315 5.66857 42.5144L7.40572 48.7315L2.65143 55.9544C1.92 57.0515 2.28572 58.423 3.29143 59.1544C4.38857 59.8858 5.76 59.5201 6.49143 58.5144L11.7943 50.4687C12.16 49.9201 12.2514 49.1887 12.0686 48.5487L10.5143 43.063H11.0629L15.4514 46.9944L13.8057 55.5887C13.5314 56.8687 14.3543 58.0573 15.6343 58.2401C17.0057 58.5144 18.1029 57.6001 18.2857 56.4115L20.2057 46.5373C20.3886 45.7144 20.1143 44.8915 19.4743 44.343L15.9086 41.143ZM4.57143 27.8858L4.38857 32.2744C3.93143 30.3544 4.11429 28.983 4.57143 27.8858ZM54.8571 30.3544C52.7543 30.5373 51.3829 29.8972 50.1943 31.1772C48.7314 32.6401 50.2857 33.2801 50.4686 32.4573C50.4686 32.3658 50.4686 32.2744 50.56 32.2744C51.2 30.8115 53.0286 31.543 54.8571 31.3601C55.5886 31.3601 56.2286 31.8172 56.4114 32.5487C56.5029 32.7315 56.6857 32.9144 56.8686 32.9144H56.96C57.2343 32.823 57.3257 32.6401 57.3257 32.3658C57.0514 31.1773 56.0457 30.3544 54.8571 30.3544ZM49.28 37.2115C49.28 37.943 49.4629 38.583 49.92 39.0401C50.3771 39.4973 51.1086 39.863 51.7486 39.863H55.2229C55.9543 39.863 56.5943 39.5887 57.0514 39.0401C58.0571 37.943 57.6 36.663 57.6 36.023C57.6 35.7487 57.4171 35.5658 57.1429 35.5658H49.7371C49.1886 35.6573 49.3714 36.5715 49.28 37.2115ZM50.1943 36.5715H56.6857L56.7771 37.303C56.7771 37.7601 56.6857 38.2173 56.32 38.4915C56.0457 38.8573 55.5886 38.9487 55.1314 38.9487H51.6571C51.2 38.9487 50.8343 38.7658 50.4686 38.4915C50.1943 38.1258 50.0114 37.7601 50.0114 37.303L50.1943 36.5715Z" fill="#244C6E"/>
<path d="M35.3829 17.8286H32.0914C30.8114 17.8286 29.7143 18.6515 29.3486 19.9315C29.2571 20.2058 29.44 20.3886 29.7143 20.48C29.9886 20.5715 30.1714 20.3886 30.2629 20.1143C30.4457 19.2915 31.2686 18.6515 32.0914 18.6515C33.92 18.8343 36.6629 17.92 37.2114 20.1143C37.3029 20.3886 37.4857 20.48 37.76 20.48C38.6743 20.2972 37.5772 17.8286 35.3829 17.8286ZM28.8914 25.6915C28.8 27.3372 30.08 28.7086 31.7257 28.7086H35.7486C36.5714 28.7086 37.3029 28.3429 37.8514 27.7943C38.4 27.2458 38.6743 26.4229 38.5829 25.6915L38.4914 24.4115C38.4914 24.1372 38.3086 23.9543 38.0343 23.9543H29.5314C28.8 23.9543 29.0743 24.96 28.8914 25.6915ZM29.8972 24.8686H37.5771L37.6686 25.7829C37.6686 26.3315 37.4857 26.88 37.12 27.2458C36.7543 27.6115 36.2971 27.8858 35.7486 27.8858H31.7257C31.1772 27.8858 30.72 27.7029 30.3543 27.2458C29.9886 26.88 29.8057 26.3315 29.8972 25.7829V24.8686ZM14.4457 25.6C14.2629 24.4115 13.2572 23.4972 12.0686 23.3143C10.6057 23.4058 7.31429 21.9429 6.30858 24.7772C6.12572 25.3258 6.94858 25.6915 7.13144 25.0515C7.86287 23.1315 10.24 24.2286 11.8857 24.2286C12.7086 24.32 13.3486 24.8686 13.44 25.6915C13.44 25.9658 13.7143 26.0572 13.8972 26.0572H13.9886C14.1714 26.0572 14.3543 25.8743 14.3543 25.7829C14.4457 25.7829 14.4457 25.6915 14.4457 25.6ZM13.9886 29.2572L6.12572 28.4343C5.48572 28.3429 5.57715 29.3486 5.39429 29.9886C5.21144 31.7258 6.40001 32.9143 7.77144 33.0972L11.4286 33.4629H11.7029C13.1657 33.4629 14.2629 32.3658 14.3543 30.9029V29.7143C14.3543 29.44 14.1714 29.2572 13.9886 29.2572ZM13.44 30.9029C13.44 31.9086 12.5257 32.64 11.52 32.5486L7.86287 32.1829C7.40572 32.1829 6.94858 31.9086 6.67429 31.5429C6.40001 31.0858 6.21715 30.6286 6.30858 30.1715L6.49144 29.44L13.5314 30.1715L13.44 30.9029Z" fill="#244C6E"/>
</svg>
