<svg width="64" height="64" viewBox="0 0 64 64" fill="none" xmlns="http://www.w3.org/2000/svg">
<path d="M15.3903 59.9962H6.19585V48.646C6.19585 47.9543 6.75657 47.3936 7.44829 47.3936H14.1379C14.8296 47.3936 15.3903 47.9543 15.3903 48.646V59.9962Z" fill="#FFE27A"/>
<path d="M29.5283 59.9958H20.3338V41.8096C20.3338 41.1178 20.8946 40.5571 21.5863 40.5571H28.2758C28.9676 40.5571 29.5283 41.1178 29.5283 41.8096V59.9958Z" fill="#FFBA57"/>
<path d="M43.6662 59.996H34.4717V34.9736C34.4717 34.2819 35.0324 33.7212 35.7242 33.7212H42.4137C43.1054 33.7212 43.6662 34.2819 43.6662 34.9736V59.996Z" fill="#98DB7C"/>
<path d="M57.8042 59.9962H48.6097V28.1377C48.6097 27.446 49.1704 26.8853 49.8621 26.8853H56.5517C57.2434 26.8853 57.8042 27.446 57.8042 28.1377V59.9962Z" fill="#8BCAFF"/>
<path d="M6.19585 57.7417H15.3903V59.9961H6.19585V57.7417Z" fill="#F9CF58"/>
<path d="M20.3338 57.7417H29.5283V59.9961H20.3338V57.7417Z" fill="#FFAC3E"/>
<path d="M34.4717 57.7417H43.6662V59.9961H34.4717V57.7417Z" fill="#82D361"/>
<path d="M48.6097 57.7417H57.8042V59.9961H48.6097V57.7417Z" fill="#6CC4FF"/>
<path d="M48.9683 14.3578L52.8803 17.0779L51.5681 4.00635L38.8459 7.31982L42.7579 10.0399C42.7579 10.0399 35.591 24.0164 9.69631 32.0074C8.36283 32.419 8.72905 34.3941 10.1213 34.2974C20.4963 33.5766 37.6287 29.873 48.9683 14.3578Z" fill="#FF4755"/>
<path d="M47.8464 13.5656C47.5678 13.3687 47.1844 13.4325 46.9806 13.7061C35.3325 29.3586 20.3889 31.3297 10.1211 32.043C9.98136 32.0534 9.84082 32.0404 9.70533 32.0045L9.69619 32.0074C8.37185 32.4252 8.74282 34.3932 10.1282 34.2969C20.5039 33.5751 37.6312 29.8696 48.9681 14.3578L47.8464 13.5656Z" fill="#FC2B3A"/>
<path d="M63.0607 59.0566H58.7435V41.4782C58.7435 41.229 58.6445 40.9901 58.4684 40.814C58.2922 40.6378 58.0533 40.5388 57.8041 40.5388C57.555 40.5388 57.3161 40.6378 57.1399 40.814C56.9638 40.9901 56.8648 41.229 56.8648 41.4782V59.0566H49.549V28.1375C49.549 27.9649 49.6894 27.8244 49.8621 27.8244H56.5517C56.7243 27.8244 56.8648 27.9649 56.8648 28.1375V37.7208C56.8648 37.97 56.9638 38.2089 57.1399 38.3851C57.3161 38.5612 57.555 38.6602 57.8041 38.6602C58.0533 38.6602 58.2922 38.5612 58.4684 38.3851C58.6445 38.2089 58.7435 37.97 58.7435 37.7208V28.1375C58.7435 26.929 57.7603 25.9457 56.5517 25.9457H49.8621C48.6537 25.9457 47.6704 26.929 47.6704 28.1375V59.0568H44.6055V34.9736C44.6055 33.7651 43.6222 32.7818 42.4137 32.7818H35.7241C34.5155 32.7818 33.5324 33.7651 33.5324 34.9736V59.0568H30.4675V41.8097C30.4675 40.6012 29.4843 39.6179 28.2757 39.6179H21.5862C20.3777 39.6179 19.3944 40.6012 19.3944 41.8097V50.0235C19.3944 50.2726 19.4933 50.5115 19.6695 50.6877C19.8457 50.8639 20.0846 50.9628 20.3337 50.9628C20.5828 50.9628 20.8218 50.8639 20.9979 50.6877C21.1741 50.5115 21.2731 50.2726 21.2731 50.0235V41.8097C21.2731 41.637 21.4136 41.4966 21.5862 41.4966H28.2757C28.4484 41.4966 28.5888 41.637 28.5888 41.8097V59.0566H21.2731V53.7808C21.2731 53.5317 21.1741 53.2928 20.9979 53.1166C20.8218 52.9405 20.5828 52.8415 20.3337 52.8415C20.0846 52.8415 19.8457 52.9405 19.6695 53.1166C19.4933 53.2928 19.3944 53.5317 19.3944 53.7808V59.0566H16.3295V48.6458C16.3295 47.4373 15.3463 46.454 14.1377 46.454H7.4483C6.23981 46.454 5.25652 47.4373 5.25652 48.6458V59.0566H0.939335C0.690208 59.0566 0.451284 59.1556 0.275125 59.3318C0.0989653 59.5079 0 59.7468 0 59.996C0 60.2451 0.0989653 60.484 0.275125 60.6602C0.451284 60.8363 0.690208 60.9353 0.939335 60.9353H63.0607C63.3098 60.9353 63.5487 60.8363 63.7249 60.6602C63.901 60.484 64 60.2451 64 59.996C64 59.7468 63.901 59.5079 63.7249 59.3318C63.5487 59.1556 63.3098 59.0566 63.0607 59.0566ZM35.411 34.9736C35.411 34.801 35.5516 34.6605 35.7241 34.6605H42.4137C42.5863 34.6605 42.7268 34.801 42.7268 34.9736V59.0568H35.411V34.9736ZM7.13519 48.6458C7.13519 48.4732 7.27571 48.3327 7.4483 48.3327H14.1379C14.3106 48.3327 14.451 48.4732 14.451 48.6458V59.0566H7.13519V48.6458ZM10.0307 35.24C10.0822 35.24 10.1342 35.2381 10.1863 35.2346C17.1138 34.7534 23.6281 33.2416 29.5486 30.7411C37.5207 27.374 44.1204 22.2986 49.1781 15.648L52.344 17.8493C52.9677 18.3143 53.9181 17.7553 53.8149 16.9842L52.5027 3.91268C52.46 3.35447 51.8697 2.94379 51.3313 3.09747L38.6092 6.41094C37.8497 6.58227 37.6563 7.66814 38.3096 8.09122L41.5044 10.3126C40.8688 11.3113 39.4683 13.2915 37.0264 15.7137C36.8496 15.8892 36.7497 16.1277 36.7487 16.3768C36.7476 16.6259 36.8456 16.8652 37.0211 17.0421C37.1965 17.2189 37.435 17.3189 37.6841 17.3199C37.9332 17.3209 38.1725 17.2229 38.3494 17.0475C42.1139 13.3133 43.5352 10.583 43.5938 10.4686C43.6975 10.2662 43.7243 10.0331 43.6692 9.81245C43.6141 9.5918 43.4809 9.39862 43.2942 9.26877L41.0586 7.71436L50.7431 5.19206L51.7421 15.1424L49.5046 13.5867C49.3032 13.4467 49.055 13.3909 48.8131 13.4315C48.5711 13.472 48.3547 13.6056 48.2099 13.8036C43.288 20.538 36.7634 25.6544 28.8177 29.0103C21.6816 32.0242 14.6763 33.0393 10.0563 33.3603C9.78636 33.4295 9.70458 32.9339 9.97335 32.9051C20.2653 29.729 28.8605 25.264 35.5201 19.6343C35.6143 19.5546 35.6919 19.4572 35.7485 19.3476C35.8051 19.238 35.8395 19.1183 35.8498 18.9954C35.8601 18.8725 35.8461 18.7487 35.8086 18.6312C35.771 18.5137 35.7107 18.4048 35.6311 18.3106C35.5515 18.2163 35.4541 18.1387 35.3444 18.0822C35.2348 18.0256 35.1151 17.9912 34.9922 17.9809C34.8693 17.9706 34.7456 17.9846 34.628 18.0221C34.5105 18.0596 34.4016 18.1199 34.3074 18.1996C27.842 23.6651 19.4685 28.0087 9.41952 31.1099C8.37598 31.4319 7.76366 32.444 7.96355 33.5164C8.15355 34.5361 9.00985 35.24 10.0307 35.24Z" fill="black"/>
</svg>
