<svg width="64" height="64" viewBox="0 0 64 64" fill="none" xmlns="http://www.w3.org/2000/svg">
<g clip-path="url(#clip0_378_96)">
<path fill-rule="evenodd" clip-rule="evenodd" d="M36.4762 12.3364H41.7962V31.1352H45.6175L39.1338 37.6177L32.6512 31.1352H36.4762V12.3364Z" fill="#70DA40"/>
<path fill-rule="evenodd" clip-rule="evenodd" d="M39.2863 50.1698L48.6825 45.0561C50.3162 44.1648 50.925 42.1048 50.0375 40.4711C49.1462 38.8373 47.0862 38.2286 45.4525 39.1161L35.2687 44.6561L39.2863 50.1698Z" fill="#E2AA73"/>
<path fill-rule="evenodd" clip-rule="evenodd" d="M37.755 56.255L57.4162 45.5563C59.05 44.6688 59.6588 42.605 58.7713 40.9713C57.88 39.3375 55.82 38.7288 54.1862 39.62L44.03 45.1438C43.8687 43.885 43.0013 42.76 41.715 42.3475C37.8388 41.0988 33.9625 39.8513 30.0875 38.6025C26.985 37.6013 23.945 37.8875 21.0837 39.445L9.15625 45.9388L16.0138 58.53L20.4613 56.1125C22.535 54.985 24.7362 54.7775 26.9825 55.5L31.2337 56.8688C33.48 57.5888 35.6813 57.3863 37.755 56.255Z" fill="#FBC894"/>
<path fill-rule="evenodd" clip-rule="evenodd" d="M13.7737 43.4224L9.15875 45.9361L16.0162 58.5274L20.4637 56.1099C20.6207 56.0244 20.78 55.9431 20.9412 55.8661L13.7737 43.4224Z" fill="#E2B485"/>
<path fill-rule="evenodd" clip-rule="evenodd" d="M4.735 45.4174L14.6087 62.5587C14.85 62.9787 15.3925 63.1262 15.8125 62.8824L20.2012 60.3549C20.6212 60.1137 20.7687 59.5712 20.525 59.1512L10.6537 42.0087C10.4125 41.5887 9.87 41.4449 9.45 41.6849L5.0625 44.2137C4.63875 44.4549 4.495 44.9974 4.735 45.4174Z" fill="#0593FC"/>
<path fill-rule="evenodd" clip-rule="evenodd" d="M39.1338 25.3775C45.8475 25.3775 51.3225 19.9025 51.3225 13.1888C51.3225 6.475 45.8475 1 39.1338 1C32.42 1 26.945 6.475 26.945 13.1888C26.9462 19.9025 32.4213 25.3775 39.1338 25.3775Z" fill="#FCD751"/>
<path fill-rule="evenodd" clip-rule="evenodd" d="M52.6637 19.9089C56.3637 19.9089 59.38 16.8889 59.38 13.1889C59.38 9.48891 56.3637 6.47266 52.6637 6.47266C48.9637 6.47266 45.9437 9.48891 45.9437 13.1889C45.9437 16.8889 48.9637 19.9089 52.6637 19.9089Z" fill="#70DA40"/>
<path fill-rule="evenodd" clip-rule="evenodd" d="M36.4762 24.3662C32.1675 22.4887 29.1537 18.19 29.1537 13.1888C29.1537 6.83 34.0238 1.60875 40.2388 1.05125C39.8775 1.0175 39.5063 1 39.1338 1C32.4038 1 26.945 6.4575 26.945 13.1888C26.945 19.0075 31.0237 23.8737 36.475 25.085C37.3477 25.2803 38.2394 25.3784 39.1338 25.3775C39.505 25.3775 39.8762 25.36 40.2375 25.3288C38.9112 25.2087 37.645 24.8787 36.4762 24.3662Z" fill="#E3C249"/>
<path fill-rule="evenodd" clip-rule="evenodd" d="M45.9437 13.1887C45.9437 15.8474 47.485 18.1412 49.7238 19.2312C50.6113 19.6649 51.6087 19.9087 52.6637 19.9087C53.0387 19.9087 53.4063 19.8774 53.7675 19.8187C52.4363 19.5987 51.2363 18.9862 50.29 18.1062C48.9725 16.8787 48.1512 15.1312 48.1512 13.1887C48.1512 11.2487 48.9738 9.49869 50.29 8.27369C51.2363 7.39369 52.4363 6.78119 53.7675 6.56119C53.4063 6.50244 53.0387 6.47119 52.6637 6.47119C51.6075 6.47119 50.61 6.71244 49.7238 7.14494C47.485 8.23619 45.9437 10.5337 45.9437 13.1887ZM38.0513 25.3287C37.515 25.2837 36.9887 25.2012 36.4762 25.0849V31.1349H38.0513V25.3287ZM39.925 36.8262L34.23 31.1349H32.6512L39.1338 37.6174L39.925 36.8262Z" fill="#65C43A"/>
<path d="M57.0425 38.3915C55.9188 38.059 54.735 38.184 53.715 38.739L51.0125 40.1902C50.9813 40.1252 50.9475 40.0602 50.9125 39.9952C49.7575 37.874 47.0925 37.0877 44.9725 38.2415L40.2325 40.8202C36.9537 39.7627 33.675 38.7065 30.395 37.6515C27.0138 36.5627 23.72 36.8715 20.6038 38.5677L12.3925 43.034L11.5175 41.5152C11.2687 41.079 10.8625 40.7665 10.3763 40.6352C10.1374 40.5701 9.88792 40.5532 9.64242 40.5854C9.39692 40.6175 9.16028 40.6982 8.94625 40.8227L4.5625 43.3477C3.6625 43.8627 3.35 45.014 3.865 45.9152C3.865 45.9165 3.86625 45.9177 3.86625 45.9177L13.7413 63.0665C14.0913 63.6652 14.725 64.0002 15.3737 64.0002C15.6912 64.0002 16.0138 63.9202 16.3062 63.7502L20.6987 61.2227C21.595 60.7027 21.905 59.5502 21.39 58.6552L20.5513 57.199L20.9375 56.9877C22.7638 55.9952 24.6938 55.814 26.6737 56.4515L30.925 57.819C31.9087 58.1352 32.8813 58.294 33.8413 58.2927C35.3413 58.2927 36.81 57.9065 38.2275 57.1352L57.8937 46.434C60.01 45.279 60.7963 42.6152 59.6463 40.494C59.0925 39.4702 58.1662 38.7227 57.0425 38.3915ZM45.9275 39.9965C47.08 39.369 48.5288 39.7965 49.1575 40.9515C49.19 41.0115 49.22 41.074 49.2475 41.1365L44.6188 43.6202C44.2275 42.814 43.585 42.149 42.77 41.714L45.9275 39.9965ZM15.4125 61.9602L5.65875 45.0227L9.845 42.6115L18.2975 57.284C18.2988 57.2852 18.2987 57.2877 18.3 57.289C18.3025 57.294 18.3063 57.2977 18.3088 57.3027L19.6025 59.549L15.4125 61.9602ZM56.9425 44.679L37.2775 55.379C35.4513 56.3715 33.5212 56.5527 31.5413 55.9152L27.29 54.5477C24.77 53.7365 22.3125 53.9665 19.9862 55.2315L19.5575 55.4652L13.3938 44.7652L21.5625 40.3215C24.1787 38.8965 26.9462 38.6377 29.7862 39.5515C33.6625 40.799 37.535 42.0452 41.4113 43.2965C42.3125 43.5865 42.9175 44.2965 43.0325 45.1965C43.0338 45.2027 43.0337 45.209 43.035 45.214C43.035 45.2165 43.0363 45.2202 43.0363 45.2227C43.09 45.584 43.0612 45.9427 42.9487 46.2915C42.755 46.894 42.335 47.3865 41.7663 47.6777C41.1975 47.969 40.5525 48.0227 39.95 47.829C36.6613 46.769 33.3737 45.7102 30.0812 44.6502C29.555 44.4815 28.9925 44.7702 28.8237 45.2952C28.655 45.8202 28.9438 46.384 29.4688 46.5527C32.76 47.6127 36.0488 48.6715 39.3363 49.7315C40.4475 50.089 41.6338 49.9915 42.6763 49.4565C43.72 48.9215 44.4913 48.0152 44.8488 46.904C44.9788 46.5002 45.0488 46.0765 45.0563 45.6527L50.7025 42.6227C50.8363 42.5827 50.9562 42.5177 51.0588 42.4315L54.665 40.4952C55.22 40.1927 55.8638 40.1252 56.4762 40.3065C57.0887 40.4877 57.5925 40.8927 57.8937 41.4477C58.52 42.6015 58.0925 44.0515 56.9425 44.679ZM35.4762 25.8602V30.134H32.6525C32.4549 30.1339 32.2618 30.1924 32.0975 30.3022C31.9332 30.4119 31.8051 30.5679 31.7295 30.7504C31.6539 30.933 31.6342 31.1338 31.6727 31.3276C31.7113 31.5213 31.8065 31.6993 31.9463 31.839L38.43 38.3227C38.6175 38.5102 38.8713 38.6152 39.1362 38.6152C39.4012 38.6152 39.655 38.5102 39.8425 38.3227L46.3237 31.839C46.61 31.5527 46.695 31.124 46.54 30.7502C46.385 30.3765 46.0213 30.134 45.6175 30.134H42.7938V25.8565C45.7675 24.994 48.3862 23.1015 50.13 20.4777C50.9448 20.7625 51.8018 20.9079 52.665 20.9077C56.92 20.9077 60.3825 17.4452 60.3825 13.1902C60.3825 8.93521 56.92 5.47271 52.665 5.47271C51.7763 5.47271 50.9237 5.62522 50.1287 5.90272C47.695 2.24147 43.56 0.00146484 39.1375 0.00146484C31.865 0.00146484 25.9487 5.91771 25.9487 13.1902C25.9475 19.1915 29.9788 24.269 35.4762 25.8602ZM41.7938 32.1315H43.205L39.135 36.2027L35.0638 32.1315H36.475C37.0275 32.1315 37.4738 31.684 37.4738 31.1327V26.2727C38.0187 26.3415 38.5725 26.3765 39.135 26.3765C39.6937 26.3765 40.2475 26.3402 40.7938 26.2702V31.1315C40.7938 31.684 41.2412 32.1315 41.7938 32.1315ZM58.3838 13.189C58.3838 16.3427 55.8188 18.9077 52.665 18.9077C49.51 18.9077 46.9425 16.3427 46.9425 13.189C46.9425 10.0352 49.51 7.47021 52.665 7.47021C55.8175 7.47021 58.3838 10.0352 58.3838 13.189ZM39.1362 1.99896C42.8075 1.99896 46.245 3.82022 48.3262 6.80897C46.2862 8.19897 44.9437 10.5402 44.9437 13.189C44.9437 15.839 46.2875 18.1802 48.3275 19.5702C46.2463 22.5577 42.81 24.379 39.1362 24.379C32.9662 24.379 27.9463 19.359 27.9463 13.189C27.9463 7.01896 32.9662 1.99896 39.1362 1.99896ZM35.235 10.3402C35.235 8.54521 36.4713 7.03272 38.1375 6.61022V4.94022C38.1375 4.38772 38.585 3.94146 39.1362 3.94146C39.6875 3.94146 40.135 4.38897 40.135 4.94022V6.51397C41.1987 6.62522 42.1888 7.18271 42.8363 8.05521C43.165 8.49771 43.0725 9.12397 42.63 9.45271C42.1875 9.78146 41.5612 9.68896 41.2325 9.24646C40.8762 8.76647 40.3338 8.49146 39.7463 8.49146H39.0838C38.0638 8.49146 37.2337 9.32146 37.2337 10.3415C37.2337 11.3615 38.0638 12.1915 39.0838 12.1915H39.4125C39.4925 12.1915 39.57 12.2015 39.645 12.2202C41.5513 12.4477 43.0337 14.074 43.0337 16.0402C43.0337 17.8365 41.7987 19.349 40.135 19.7727V21.4402C40.135 21.9927 39.6875 22.439 39.1362 22.439C38.585 22.439 38.1375 21.9915 38.1375 21.4402V19.8702C37.0725 19.759 36.0812 19.2002 35.4325 18.3265C35.1037 17.884 35.1962 17.2577 35.6387 16.929C36.0825 16.6002 36.7075 16.6927 37.0363 17.1352C37.3937 17.6177 37.9375 17.894 38.5262 17.894H39.185C40.205 17.894 41.035 17.0627 41.035 16.0402C41.035 15.0202 40.205 14.1902 39.185 14.1902H38.8563C38.7762 14.1902 38.6975 14.1802 38.6237 14.1615C36.7175 13.9315 35.235 12.3065 35.235 10.3402ZM48.9325 13.6165C48.5425 13.2265 48.5413 12.594 48.9313 12.204C49.3213 11.814 49.9538 11.8127 50.3438 12.2027L51.8413 13.6977L54.98 10.5627C55.37 10.1727 56.0025 10.1727 56.3925 10.5627C56.7825 10.9527 56.7825 11.5852 56.3913 11.9752L52.5462 15.8165C52.4536 15.9094 52.3436 15.9831 52.2223 16.0333C52.1011 16.0835 51.9712 16.1092 51.84 16.109C51.585 16.109 51.3288 16.0115 51.1338 15.8165L48.9325 13.6165Z" fill="black"/>
</g>
<defs>
<clipPath id="clip0_378_96">
<rect width="64" height="64" fill="white"/>
</clipPath>
</defs>
</svg>
