<svg width="53" height="53" viewBox="0 0 53 53" fill="none" xmlns="http://www.w3.org/2000/svg">
<path d="M8.83334 39.75C8.20765 39.75 7.68354 39.538 7.26101 39.114C6.83848 38.69 6.62648 38.1659 6.62501 37.5417C6.62354 36.9174 6.83554 36.3933 7.26101 35.9693C7.68648 35.5453 8.21059 35.3333 8.83334 35.3333H44.1667C44.7924 35.3333 45.3172 35.5453 45.7412 35.9693C46.1652 36.3933 46.3765 36.9174 46.375 37.5417C46.3735 38.1659 46.1615 38.6907 45.739 39.1162C45.3165 39.5417 44.7924 39.7529 44.1667 39.75H8.83334ZM8.83334 28.7083C8.20765 28.7083 7.68354 28.4963 7.26101 28.0723C6.83848 27.6483 6.62648 27.1242 6.62501 26.5C6.62354 25.8758 6.83554 25.3517 7.26101 24.9277C7.68648 24.5037 8.21059 24.2917 8.83334 24.2917H44.1667C44.7924 24.2917 45.3172 24.5037 45.7412 24.9277C46.1652 25.3517 46.3765 25.8758 46.375 26.5C46.3735 27.1242 46.1615 27.6491 45.739 28.0745C45.3165 28.5 44.7924 28.7113 44.1667 28.7083H8.83334ZM8.83334 17.6667C8.20765 17.6667 7.68354 17.4547 7.26101 17.0307C6.83848 16.6067 6.62648 16.0826 6.62501 15.4583C6.62354 14.8341 6.83554 14.31 7.26101 13.886C7.68648 13.462 8.21059 13.25 8.83334 13.25H44.1667C44.7924 13.25 45.3172 13.462 45.7412 13.886C46.1652 14.31 46.3765 14.8341 46.375 15.4583C46.3735 16.0826 46.1615 16.6074 45.739 17.0329C45.3165 17.4583 44.7924 17.6696 44.1667 17.6667H8.83334Z" fill="black"/>
</svg>
