<svg width="64" height="64" viewBox="0 0 64 64" fill="none" xmlns="http://www.w3.org/2000/svg">
<path d="M32 40.6828C35.0208 40.6807 37.9172 39.4797 40.0532 37.3436C42.1892 35.2076 43.39 32.3111 43.392 29.2903C43.3925 27.3517 42.8984 25.4451 41.9564 23.7508C41.0144 22.0565 39.6557 20.6306 38.0087 19.608C36.3618 18.5854 34.4812 18 32.5449 17.9071C30.6086 17.8142 28.6806 18.217 26.9433 19.0772C25.2061 19.9375 23.7171 21.2267 22.6172 22.8231C21.5174 24.4194 20.843 26.27 20.658 28.1997C20.473 30.1294 20.7834 32.0744 21.5599 33.8507C22.3365 35.6269 23.5534 37.1756 25.0955 38.3503C27.0756 39.8701 29.5038 40.6904 32 40.6828ZM22.3565 29.2903C22.3558 27.6493 22.7738 26.0353 23.5711 24.601C24.3684 23.1668 25.5184 21.9597 26.9125 21.094C28.3065 20.2284 29.8985 19.7328 31.5375 19.6542C33.1766 19.5755 34.8086 19.9165 36.2791 20.6448C37.7496 21.373 39.01 22.4645 39.9408 23.8159C40.8717 25.1673 41.4423 26.7339 41.5986 28.3674C41.755 30.0009 41.4919 31.6472 40.8342 33.1507C40.1766 34.6541 39.1462 35.9648 37.8405 36.9588C36.4112 38.0471 34.7064 38.7144 32.9182 38.8857C31.1299 39.0569 29.3294 38.7252 27.7196 37.928C26.1098 37.1307 24.7547 35.8996 23.8071 34.3734C22.8595 32.8472 22.3571 31.0867 22.3565 29.2903Z" fill="#FD5C70"/>
<path d="M30.092 32.2646C30.1996 32.2243 30.2982 32.1632 30.3822 32.0848C30.4662 32.0063 30.534 31.9121 30.5816 31.8075C30.6291 31.7029 30.6557 31.5899 30.6596 31.4751C30.6635 31.3602 30.6448 31.2457 30.6045 31.1381C30.5642 31.0305 30.5031 30.9319 30.4246 30.8479C30.3462 30.7639 30.252 30.6962 30.1474 30.6486C30.0428 30.601 29.9298 30.5744 29.815 30.5705C29.7001 30.5666 29.5856 30.5853 29.478 30.6256C28.0919 31.1497 26.8977 32.0823 26.0534 33.3001C25.2092 34.5178 24.7546 35.9633 24.75 37.4451V37.6551C24.75 37.7898 24.7811 37.9227 24.8409 38.0434C24.9006 38.1641 24.9874 38.2694 25.0945 38.3511C27.0775 39.8653 29.5033 40.6856 31.9982 40.6856C34.4932 40.6856 36.919 39.8653 38.902 38.3511C39.0087 38.2693 39.0951 38.1641 39.1545 38.0436C39.214 37.9231 39.245 37.7905 39.245 37.6561V37.3911C39.2479 36.4438 39.063 35.5054 38.701 34.63C38.339 33.7546 37.8071 32.9597 37.136 32.2911C36.4034 31.548 35.5155 30.9762 34.536 30.6166C34.4278 30.5753 34.3124 30.5559 34.1967 30.5595C34.0809 30.5631 33.967 30.5897 33.8616 30.6377C33.7561 30.6856 33.6613 30.754 33.5825 30.839C33.5037 30.9239 33.4426 31.0236 33.4026 31.1323C33.3627 31.241 33.3447 31.3566 33.3498 31.4723C33.3549 31.588 33.3828 31.7016 33.4321 31.8064C33.4814 31.9112 33.551 32.0052 33.6369 32.0829C33.7228 32.1607 33.8233 32.2205 33.9325 32.2591C34.6723 32.5317 35.3428 32.9644 35.896 33.5261C36.8803 34.5065 37.4514 35.8269 37.4915 37.2156C35.8788 38.3364 33.9619 38.9371 31.998 38.9371C30.0341 38.9371 28.1172 38.3364 26.5045 37.2156C26.5531 36.13 26.9188 35.0825 27.5564 34.2026C28.194 33.3226 29.0755 32.6489 30.092 32.2646Z" fill="#FD5C70"/>
<path d="M36.646 28.4028C36.6457 27.484 36.373 26.5859 35.8623 25.822C35.3516 25.0582 34.6259 24.4629 33.7769 24.1115C32.9279 23.7601 31.9938 23.6683 31.0927 23.8478C30.1916 24.0272 29.3639 24.4698 28.7142 25.1196C28.0646 25.7694 27.6223 26.5973 27.4432 27.4985C27.264 28.3997 27.3561 29.3337 27.7078 30.1826C28.0595 31.0315 28.655 31.757 29.419 32.2674C30.183 32.7779 31.0812 33.0503 32 33.0503C33.2321 33.0492 34.4135 32.5592 35.2846 31.6878C36.1557 30.8164 36.6453 29.6349 36.646 28.4028ZM29.1045 28.4028C29.1048 27.8301 29.2749 27.2703 29.5933 26.7942C29.9117 26.3182 30.3642 25.9472 30.8934 25.7283C31.4226 25.5093 32.0049 25.4522 32.5666 25.5642C33.1283 25.6761 33.6441 25.9521 34.049 26.3572C34.4538 26.7624 34.7295 27.2784 34.841 27.8402C34.9526 28.4019 34.8951 28.9842 34.6758 29.5132C34.4565 30.0423 34.0852 30.4945 33.6089 30.8126C33.1326 31.1307 32.5727 31.3004 32 31.3003C31.2321 31.2991 30.496 30.9934 29.9532 30.4502C29.4104 29.907 29.1052 29.1707 29.1045 28.4028Z" fill="#FD5C70"/>
<path d="M24.3455 10.5382C24.3016 10.4034 24.2257 10.2813 24.1242 10.1822C24.0228 10.0832 23.8988 10.0103 23.763 9.96971L21.113 9.17921L19.5405 6.90021C19.4601 6.78347 19.3526 6.68802 19.2271 6.62208C19.1016 6.55614 18.962 6.52168 18.8203 6.52168C18.6785 6.52168 18.5389 6.55614 18.4134 6.62208C18.288 6.68802 18.1804 6.78347 18.1 6.90021L16.529 9.17721L13.879 9.96771C13.7431 10.0082 13.6191 10.081 13.5177 10.1801C13.4162 10.2791 13.3403 10.4012 13.2965 10.5361C13.2528 10.6709 13.2424 10.8144 13.2663 10.9541C13.2903 11.0938 13.3478 11.2256 13.434 11.3382L15.114 13.5382L15.0465 16.3042C15.0432 16.4456 15.0743 16.5858 15.1371 16.7125C15.1998 16.8393 15.2924 16.949 15.4068 17.0322C15.5213 17.1154 15.6542 17.1696 15.7941 17.1901C15.9341 17.2107 16.077 17.197 16.2105 17.1502L18.8205 16.2312L21.43 17.1502C21.5636 17.1973 21.7067 17.2112 21.8469 17.1908C21.9872 17.1703 22.1203 17.1162 22.235 17.0329C22.3496 16.9496 22.4423 16.8398 22.5051 16.7127C22.5679 16.5857 22.5989 16.4454 22.5955 16.3037L22.528 13.5377L24.2085 11.3377C24.2941 11.2254 24.3513 11.094 24.3752 10.9548C24.399 10.8156 24.3889 10.6726 24.3455 10.5382ZM20.95 12.7197C20.8289 12.8782 20.7656 13.0733 20.7705 13.2727L20.8145 15.0787L19.1105 14.4787C18.9225 14.4127 18.7175 14.4127 18.5295 14.4787L16.825 15.0787L16.869 13.2727C16.8739 13.0733 16.8106 12.8782 16.6895 12.7197L15.5925 11.2847L17.3235 10.7687C17.5145 10.7116 17.6804 10.5909 17.7935 10.4267L18.82 8.93971L19.8455 10.4267C19.959 10.5908 20.1249 10.7114 20.316 10.7687L22.05 11.2847L20.95 12.7197ZM50.703 10.5382C50.6593 10.4034 50.5835 10.2812 50.4821 10.1822C50.3808 10.0831 50.2568 10.0102 50.121 9.96971L47.471 9.17921L45.9 6.90021C45.8153 6.78967 45.7062 6.70011 45.5813 6.63848C45.4564 6.57685 45.319 6.54479 45.1797 6.54479C45.0405 6.54479 44.9031 6.57685 44.7782 6.63848C44.6533 6.70011 44.5442 6.78967 44.4595 6.90021L42.888 9.17721L40.238 9.96771C40.1022 10.0083 39.9784 10.0813 39.877 10.1803C39.7756 10.2793 39.6998 10.4014 39.6559 10.5362C39.6121 10.6709 39.6017 10.8143 39.6255 10.954C39.6492 11.0937 39.7066 11.2255 39.7925 11.3382L41.473 13.5382L41.406 16.3037C41.4024 16.4454 41.4333 16.5858 41.496 16.7129C41.5587 16.84 41.6513 16.9499 41.766 17.0333C41.8806 17.1166 42.0138 17.1709 42.154 17.1913C42.2942 17.2118 42.4373 17.1978 42.571 17.1507L45.1805 16.2317L47.7905 17.1507C47.9241 17.1978 48.0672 17.2118 48.2074 17.1913C48.3476 17.1709 48.4807 17.1167 48.5953 17.0334C48.7099 16.9501 48.8026 16.8403 48.8653 16.7132C48.9281 16.5862 48.959 16.4458 48.9555 16.3042L48.8885 13.5382L50.569 11.3382C50.6542 11.2255 50.7108 11.094 50.7342 10.9547C50.7575 10.8154 50.7468 10.6725 50.703 10.5382ZM47.3085 12.7202C47.1875 12.8785 47.1243 13.0735 47.1295 13.2727L47.173 15.0787L45.469 14.4787C45.2808 14.4127 45.0757 14.4127 44.8875 14.4787L43.1835 15.0787L43.2275 13.2727C43.2326 13.0734 43.1694 12.8783 43.0485 12.7197L41.9485 11.2847L43.68 10.7687C43.871 10.7113 44.0369 10.5907 44.1505 10.4267L45.176 8.93971L46.202 10.4267C46.3156 10.5907 46.4815 10.7113 46.6725 10.7687L48.404 11.2847L47.3085 12.7202ZM37.5245 6.98771C37.4807 6.85292 37.4049 6.73077 37.3035 6.63175C37.2022 6.53272 37.0783 6.45979 36.9425 6.41921L34.2925 5.62871L32.719 3.35021C32.6343 3.23976 32.5253 3.15029 32.4004 3.08872C32.2756 3.02714 32.1382 2.99512 31.999 2.99512C31.8598 2.99512 31.7225 3.02714 31.5976 3.08872C31.4728 3.15029 31.3637 3.23976 31.279 3.35021L29.708 5.62721L27.058 6.41771C26.9221 6.45817 26.7981 6.53105 26.6967 6.63006C26.5952 6.72906 26.5193 6.85124 26.4755 6.98608C26.4318 7.12091 26.4214 7.26437 26.4453 7.4041C26.4693 7.54383 26.5268 7.67564 26.613 7.78821L28.293 9.98821L28.2255 12.7542C28.2222 12.8956 28.2533 13.0358 28.3161 13.1625C28.3788 13.2893 28.4714 13.399 28.5858 13.4822C28.7003 13.5654 28.8332 13.6196 28.9731 13.6401C29.1131 13.6607 29.256 13.647 29.3895 13.6002L32 12.6817L34.609 13.6002C34.7426 13.6472 34.8856 13.661 35.0258 13.6406C35.1659 13.6201 35.299 13.5659 35.4136 13.4826C35.5282 13.3994 35.6208 13.2895 35.6836 13.1626C35.7464 13.0356 35.7774 12.8953 35.774 12.7537L35.707 9.98771L37.3875 7.78771C37.4732 7.67532 37.5305 7.54386 37.5543 7.40454C37.5782 7.26523 37.5679 7.12221 37.5245 6.98771ZM34.1295 9.16921C34.0086 9.32781 33.9453 9.52284 33.95 9.72221L33.9935 11.5287L32.29 10.9287C32.1018 10.8627 31.8967 10.8627 31.7085 10.9287L30.0045 11.5287L30.0485 9.72221C30.0534 9.5228 29.9901 9.32769 29.869 9.16921L28.769 7.73421L30.5005 7.21821C30.6915 7.16106 30.8574 7.04041 30.9705 6.87621L32 5.38921L33.026 6.87621C33.1392 7.04041 33.305 7.16106 33.496 7.21821L35.2275 7.73421L34.1295 9.16921ZM26.5 61.0267C26.7321 61.0267 26.9546 60.9345 27.1187 60.7704C27.2828 60.6063 27.375 60.3838 27.375 60.1517V53.8002C27.375 53.5681 27.2828 53.3456 27.1187 53.1815C26.9546 53.0174 26.7321 52.9252 26.5 52.9252H11.427C11.1949 52.9252 10.9724 53.0174 10.8083 53.1815C10.6442 53.3456 10.552 53.5681 10.552 53.8002V60.1502C10.552 60.3823 10.6442 60.6048 10.8083 60.7689C10.9724 60.933 11.1949 61.0252 11.427 61.0252L26.5 61.0267ZM12.3 54.6767H25.625V59.2767H12.3V54.6767ZM12.2695 28.6432C12.3673 28.4023 12.5448 28.2023 12.7724 28.0766C13 27.9509 13.2638 27.9071 13.5198 27.9526C13.7757 27.9981 14.0083 28.1301 14.1786 28.3265C14.349 28.5229 14.4467 28.7719 14.4555 29.0317L14.7505 37.3162C14.7585 37.5427 14.8541 37.7572 15.0171 37.9146C15.1801 38.0721 15.3979 38.1601 15.6245 38.1602H15.6565C15.7714 38.1561 15.8844 38.1294 15.989 38.0816C16.0935 38.0338 16.1877 37.9658 16.266 37.8817C16.3443 37.7975 16.4053 37.6987 16.4455 37.591C16.4856 37.4832 16.5041 37.3686 16.5 37.2537L16.205 28.9717C16.1827 28.3117 15.9347 27.6793 15.5023 27.18C15.07 26.6808 14.4795 26.345 13.8294 26.2287C13.1793 26.1124 12.509 26.2226 11.9304 26.5409C11.3517 26.8592 10.8998 27.3664 10.65 27.9777C10.5618 28.1924 10.5624 28.4334 10.6518 28.6476C10.7412 28.8618 10.9121 29.0317 11.1268 29.12C11.3414 29.2082 11.5824 29.2076 11.7966 29.1182C12.0108 29.0287 12.1813 28.8579 12.2695 28.6432Z" fill="#27276D"/>
<path d="M14.6 54.4907C14.7524 54.6071 14.9388 54.6702 15.1305 54.6702H24.2755C24.5076 54.6702 24.7301 54.578 24.8942 54.4139C25.0583 54.2498 25.1505 54.0272 25.1505 53.7952V47.4202C25.1512 46.4706 24.9481 45.532 24.5547 44.6677C24.1614 43.8035 23.587 43.0338 22.8705 42.4107L16.425 36.7962C15.9281 36.3606 15.3141 36.0807 14.6593 35.9912C14.0046 35.9018 13.338 36.0068 12.7425 36.2932L12.263 26.8687C12.226 26.0742 11.8767 25.3266 11.2912 24.7884C10.7056 24.2501 9.93126 23.9649 9.13652 23.9948C8.34178 24.0247 7.59099 24.3672 7.0475 24.9478C6.50402 25.5284 6.21183 26.3002 6.2345 27.0952C6.2845 29.2142 6.4395 34.7802 6.8565 40.6822C7.4425 48.9467 14.307 54.2687 14.6 54.4907ZM7.984 27.0532C7.97731 26.8027 8.04513 26.5559 8.17886 26.344C8.31258 26.1321 8.5062 25.9647 8.73518 25.8629C8.96416 25.7612 9.21819 25.7297 9.46507 25.7725C9.71196 25.8152 9.94059 25.9303 10.122 26.1032C10.3567 26.328 10.4974 26.6336 10.5155 26.9582L11.0905 38.2582C11.1004 38.4512 11.1739 38.6355 11.2996 38.7824C11.4253 38.9292 11.596 39.0303 11.7852 39.0699C11.9744 39.1094 12.1713 39.0853 12.3453 39.0011C12.5193 38.917 12.6606 38.7776 12.747 38.6047C12.8113 38.4795 12.8913 38.3631 12.985 38.2582C13.1368 38.0842 13.3243 37.945 13.5347 37.8501C13.7452 37.7552 13.9736 37.7068 14.2045 37.7082C14.5983 37.7092 14.9785 37.8529 15.2745 38.1127L21.72 43.7307C22.2479 44.1895 22.671 44.7564 22.9609 45.3929C23.2507 46.0294 23.4005 46.7208 23.4 47.4202V52.9202H15.439C14.2945 51.9632 9.0765 47.2502 8.6 40.5587C8.188 34.6947 8.0315 29.1617 7.984 27.0532Z" fill="#27276D"/>
<path d="M12.909 37.0246C12.7351 36.871 12.5074 36.7927 12.2759 36.8068C12.0443 36.821 11.8278 36.9265 11.674 37.1001C11.3793 37.4334 11.1533 37.8216 11.0091 38.2425C10.8648 38.6633 10.8051 39.1085 10.8333 39.5525C10.8616 39.9965 10.9772 40.4306 11.1737 40.8297C11.3701 41.2289 11.6434 41.5854 11.978 41.8786L18.953 47.9836C19.1291 48.1247 19.3529 48.1923 19.5776 48.1723C19.8024 48.1522 20.0107 48.0462 20.1591 47.8762C20.3075 47.7063 20.3846 47.4855 20.3741 47.2601C20.3636 47.0347 20.2665 46.8221 20.103 46.6666L13.132 40.5631C12.9707 40.4219 12.8388 40.2501 12.744 40.0578C12.6493 39.8654 12.5934 39.6563 12.5797 39.4423C12.566 39.2283 12.5947 39.0137 12.6642 38.8108C12.7336 38.6079 12.8425 38.4208 12.9845 38.2601C13.0607 38.174 13.1192 38.0738 13.1566 37.9651C13.1941 37.8565 13.2097 37.7415 13.2027 37.6267C13.1957 37.512 13.1662 37.3998 13.1158 37.2964C13.0654 37.1931 12.9951 37.1008 12.909 37.0246ZM52.5715 61.0266C52.8036 61.0266 53.0261 60.9344 53.1902 60.7703C53.3543 60.6062 53.4465 60.3837 53.4465 60.1516V53.8001C53.4465 53.5681 53.3543 53.3455 53.1902 53.1814C53.0261 53.0173 52.8036 52.9251 52.5715 52.9251H37.4965C37.3816 52.9251 37.2678 52.9476 37.1616 52.9916C37.0554 53.0355 36.9589 53.1 36.8776 53.1812C36.7964 53.2625 36.7319 53.359 36.688 53.4652C36.644 53.5714 36.6214 53.6852 36.6215 53.8001V60.1501C36.6214 60.265 36.644 60.3788 36.688 60.485C36.7319 60.5912 36.7964 60.6877 36.8776 60.769C36.9589 60.8502 37.0554 60.9147 37.1616 60.9586C37.2678 61.0026 37.3816 61.0252 37.4965 61.0251L52.5715 61.0266ZM38.3715 54.6766H51.6965V59.2766H38.3715V54.6766ZM48.3755 38.1601C48.6022 38.16 48.82 38.072 48.9831 37.9146C49.1462 37.7572 49.2418 37.5426 49.25 37.3161L49.545 29.0286C49.5543 28.769 49.6524 28.5204 49.8229 28.3244C49.9935 28.1284 50.2261 27.9968 50.4819 27.9516C50.7378 27.9064 51.0013 27.9504 51.2287 28.0762C51.456 28.2019 51.6333 28.4019 51.731 28.6426C51.7747 28.7489 51.8388 28.8456 51.9199 28.9271C52.0009 29.0086 52.0972 29.0733 52.2032 29.1176C52.3093 29.1619 52.423 29.1849 52.5379 29.1852C52.6528 29.1856 52.7667 29.1633 52.873 29.1196C52.9793 29.076 53.076 29.0118 53.1575 28.9308C53.239 28.8497 53.3037 28.7534 53.348 28.6474C53.3923 28.5414 53.4153 28.4276 53.4156 28.3127C53.416 28.1978 53.3937 28.0839 53.35 27.9776C53.1 27.367 52.6482 26.8605 52.07 26.5426C51.4918 26.2247 50.8222 26.1145 50.1726 26.2305C49.523 26.3464 48.9328 26.6815 48.5004 27.1798C48.0679 27.6782 47.8193 28.3097 47.796 28.9691L47.5 37.2536C47.4918 37.4856 47.576 37.7114 47.7342 37.8813C47.8923 38.0512 48.1115 38.1513 48.3435 38.1596L48.3755 38.1601Z" fill="#27276D"/>
<path d="M48.8705 54.67C49.0622 54.67 49.2487 54.607 49.401 54.4905C49.693 54.2685 56.557 48.9465 57.1435 40.682C57.5605 34.782 57.7175 29.214 57.765 27.097C57.7823 26.3054 57.4876 25.5387 56.9446 24.9624C56.4016 24.3862 55.6537 24.0465 54.8625 24.0168C54.0712 23.987 53.3 24.2696 52.7153 24.8035C52.1305 25.3374 51.7792 26.0798 51.737 26.8705L51.2575 36.2925C50.6621 36.0065 49.9957 35.9016 49.3412 35.9911C48.6867 36.0805 48.0729 36.3602 47.576 36.7955L41.1315 42.4095C40.4148 43.0327 39.8402 43.8026 39.4466 44.667C39.053 45.5314 38.8495 46.4702 38.85 47.42V53.795C38.85 54.0271 38.9422 54.2496 39.1063 54.4137C39.2704 54.5778 39.4929 54.67 39.725 54.67H48.8705ZM40.6 47.42C40.5995 46.7204 40.7492 46.0289 41.0391 45.3922C41.3289 44.7555 41.7521 44.1885 42.28 43.7295L48.7265 38.114C49.0224 37.8545 49.4024 37.7109 49.796 37.71C50.0263 37.7086 50.2542 37.7568 50.4643 37.8513C50.6744 37.9458 50.8617 38.0843 51.0135 38.2575C51.1078 38.3625 51.1881 38.4793 51.2525 38.605C51.3387 38.7781 51.4799 38.9177 51.6539 39.0021C51.8279 39.0864 52.0249 39.1108 52.2142 39.0713C52.4036 39.0318 52.5744 38.9308 52.7002 38.7839C52.826 38.637 52.8996 38.4526 52.9095 38.2595L53.485 26.9595C53.5024 26.6344 53.6429 26.3282 53.878 26.103C54.0593 25.9298 54.2879 25.8144 54.5349 25.7715C54.7818 25.7285 55.036 25.76 55.2651 25.8618C55.4941 25.9636 55.6878 26.1312 55.8214 26.3433C55.955 26.5554 56.0226 26.8024 56.0155 27.053C55.9685 29.1595 55.8125 34.692 55.3975 40.556C54.9245 47.229 49.704 51.956 48.56 52.918H40.6V47.42Z" fill="#27276D"/>
<path d="M43.8945 46.6667C43.731 46.8222 43.6339 47.0348 43.6234 47.2602C43.6129 47.4856 43.69 47.7063 43.8384 47.8763C43.9868 48.0463 44.1951 48.1523 44.4199 48.1723C44.6446 48.1923 44.8684 48.1248 45.0445 47.9837L52.0215 41.8772C52.3555 41.5837 52.6282 41.2271 52.8241 40.828C53.02 40.4289 53.1352 39.995 53.1631 39.5512C53.191 39.1075 53.131 38.6626 52.9865 38.2421C52.8421 37.8216 52.6161 37.4337 52.3215 37.1007C52.2459 37.0127 52.1536 36.9407 52.0499 36.8887C51.9462 36.8367 51.8333 36.8059 51.7176 36.7979C51.6018 36.79 51.4857 36.8052 51.3759 36.8425C51.2661 36.8799 51.1649 36.9387 51.078 37.0156C50.9911 37.0924 50.9204 37.1858 50.87 37.2902C50.8195 37.3946 50.7903 37.5081 50.7841 37.6239C50.7778 37.7397 50.7947 37.8556 50.8336 37.9648C50.8726 38.0741 50.9329 38.1745 51.011 38.2602C51.1526 38.4207 51.2612 38.6076 51.3305 38.8101C51.3999 39.0126 51.4286 39.2268 51.415 39.4405C51.4015 39.6541 51.3459 39.863 51.2515 40.0551C51.1571 40.2472 51.0258 40.4189 50.865 40.5602L43.8945 46.6667Z" fill="#27276D"/>
</svg>
