<svg width="64" height="64" viewBox="0 0 64 64" fill="none" xmlns="http://www.w3.org/2000/svg">
<path fill-rule="evenodd" clip-rule="evenodd" d="M41.5259 35.1934H22.5418C21.7834 35.1934 21.1629 35.8138 21.1629 36.5722V41.514C21.1629 42.2724 21.7834 42.8929 22.5418 42.8929H41.5272C42.2855 42.8929 42.906 42.2724 42.906 41.514V36.5722C42.906 35.8138 42.2855 35.1934 41.5259 35.1934Z" fill="#ECBA78"/>
<path fill-rule="evenodd" clip-rule="evenodd" d="M32.0338 27.0023L36.5776 30.2518V18.0488H27.4901V30.2518L32.0338 27.0023Z" fill="#E3A76F"/>
<path fill-rule="evenodd" clip-rule="evenodd" d="M36.5776 18.0487V30.2516L32.0325 27.0022L27.4888 30.2516V18.0487H19.9324C18.629 18.0487 17.5623 19.1153 17.5623 20.4187V43.7748C17.5623 45.0783 18.629 46.1449 19.9324 46.1449H44.1353C45.4387 46.1449 46.5054 45.0783 46.5054 43.7748V20.4174C46.5054 19.114 45.4387 18.0474 44.1353 18.0474H36.5776V18.0487ZM22.5418 35.1934H41.5272C42.2855 35.1934 42.906 35.8139 42.906 36.5722V41.514C42.906 42.2724 42.2855 42.8929 41.5272 42.8929H22.5418C21.7834 42.8929 21.1629 42.2724 21.1629 41.514V36.5722C21.1616 35.8139 21.7821 35.1934 22.5418 35.1934Z" fill="#F2D1A5"/>
<path fill-rule="evenodd" clip-rule="evenodd" d="M23.0556 14.4977C24.0768 14.62 25.0081 13.8876 25.1304 12.8665C25.2527 11.8454 24.5203 10.914 23.4992 10.7917L21.9291 10.6031C24.9015 8.73772 28.3564 7.72959 31.9324 7.72959C36.9457 7.72959 41.7054 9.70032 45.2514 13.2463C45.9785 13.9735 47.1636 13.9735 47.8907 13.2463C48.6179 12.5192 48.6179 11.3341 47.8907 10.607C43.6449 6.36114 37.9356 3.99756 31.9324 3.99756C27.546 3.99756 23.3106 5.26455 19.6917 7.60341L19.8634 6.16601C19.9857 5.14618 19.2533 4.21349 18.2322 4.09122C17.2124 3.96894 16.2797 4.7013 16.1574 5.72244L15.4407 11.7062C15.4068 11.9898 15.4394 12.2681 15.5252 12.5218C15.6137 12.7872 15.7633 13.0369 15.974 13.2463C16.1275 13.3998 16.3018 13.5208 16.4878 13.6093C16.6673 13.6951 16.8637 13.7537 17.0719 13.7797L23.0556 14.4977ZM46.9958 50.4119L41.012 49.6951C39.9909 49.5728 39.0595 50.3052 38.9372 51.3263C38.815 52.3475 39.5473 53.2789 40.5685 53.4011L42.1385 53.5898C39.1662 55.4551 35.7112 56.4632 32.1353 56.4632C27.122 56.4632 22.3623 54.4925 18.8163 50.9465C18.0891 50.2193 16.9041 50.2193 16.1769 50.9465C15.4498 51.6737 15.4498 52.8587 16.1769 53.5858C20.4228 57.8317 26.132 60.1953 32.1353 60.1953C36.5203 60.1953 40.7571 58.9283 44.3759 56.5894L44.2042 58.0268C44.082 59.0467 44.8143 59.9793 45.8355 60.1016C46.8553 60.2239 47.788 59.4915 47.9102 58.4704L48.627 52.4867C48.6608 52.2031 48.6283 51.9247 48.5424 51.6711C48.454 51.4057 48.3044 51.1559 48.0937 50.9465C47.9444 50.797 47.7706 50.6743 47.5798 50.5836C47.4003 50.4951 47.2039 50.4366 46.9958 50.4119ZM56.3994 31.995C56.3994 37.0083 54.4286 41.768 50.8826 45.314C50.1555 46.0411 50.1555 47.2262 50.8826 47.9533C51.6098 48.6805 52.7948 48.6805 53.522 47.9533C57.7678 43.7075 60.1314 37.9982 60.1314 31.995C60.1314 27.6086 58.8644 23.3732 56.5255 19.7543L57.9629 19.926C58.9828 20.0483 59.9155 19.3159 60.0377 18.2948C60.16 17.275 59.4276 16.3423 58.4065 16.22L52.4228 15.5032C52.148 15.4703 51.8693 15.4992 51.6072 15.5878C51.3418 15.6763 51.092 15.8259 50.8826 16.0366C50.7332 16.1859 50.6104 16.3596 50.5197 16.5504C50.4338 16.7299 50.3753 16.9263 50.3493 17.1345L49.6325 23.1182C49.5103 24.1393 50.2426 25.0707 51.2637 25.193C52.2849 25.3153 53.2163 24.5829 53.3385 23.5618L53.5272 21.9917C55.3925 24.9641 56.3994 28.4177 56.3994 31.995ZM13.7184 47.0584L14.4351 41.0746C14.5574 40.0535 13.825 39.1221 12.8039 38.9998C11.7828 38.8776 10.8514 39.6099 10.7291 40.6311L10.5405 42.2011C8.67513 39.2288 7.667 35.7738 7.667 32.1979C7.667 27.1846 9.63773 22.4249 13.1837 18.8789C13.9109 18.1517 13.9109 16.9667 13.1837 16.2395C12.4566 15.5124 11.2716 15.5124 10.5444 16.2395C6.29854 20.4854 3.93497 26.1946 3.93497 32.1979C3.93497 36.5842 5.20196 40.8197 7.54082 44.4385L6.10342 44.2668C5.08358 44.1445 4.1509 44.8769 4.02863 45.898C3.90635 46.9179 4.63871 47.8506 5.65984 47.9728L11.6436 48.6896C11.9272 48.7234 12.2055 48.6909 12.4592 48.605C12.7246 48.5166 12.9743 48.367 13.1837 48.1563C13.3372 48.0028 13.4582 47.8284 13.5467 47.6424C13.6351 47.4629 13.6937 47.2665 13.7184 47.0584Z" fill="#8BC34A"/>
<path d="M23.2794 15.135C23.1805 15.135 23.0816 15.1298 22.9815 15.1168L16.9977 14.4C16.7259 14.3675 16.4631 14.2908 16.2172 14.1724C15.9649 14.0514 15.7333 13.8888 15.533 13.6872C15.2599 13.4156 15.0545 13.0837 14.9333 12.7181C14.815 12.3682 14.7772 12.0013 14.8215 11.6293L15.5382 5.64556C15.6176 4.98605 15.9493 4.39678 16.4722 3.98443C16.9964 3.57207 17.6468 3.38865 18.3063 3.468C18.9659 3.54735 19.5551 3.87906 19.9675 4.40199C20.3785 4.92621 20.562 5.57662 20.4839 6.23613L20.4644 6.40003C23.9519 4.41369 27.8894 3.36914 31.9337 3.36914C38.1281 3.36914 43.9532 5.78215 48.333 10.162C49.3034 11.1324 49.3034 12.7129 48.333 13.6846C47.3626 14.655 45.7821 14.655 44.8104 13.6846C41.3711 10.2452 36.7974 8.34995 31.9324 8.35125C29.1226 8.35125 26.3727 8.99386 23.8803 10.2244C25.0797 10.5223 25.9005 11.6787 25.7509 12.9366C25.5987 14.2049 24.5216 15.135 23.2794 15.135ZM18.0098 4.70377C17.734 4.70377 17.466 4.79613 17.2449 4.97044C17.1164 5.0708 17.009 5.19555 16.9289 5.33752C16.8487 5.4795 16.7974 5.6359 16.7779 5.79776L16.0611 11.7815C16.0385 11.9642 16.0577 12.1497 16.1171 12.3239C16.1774 12.5065 16.2799 12.6723 16.4163 12.8078C16.5164 12.908 16.6309 12.9887 16.7571 13.0485C16.8807 13.1083 17.0107 13.1461 17.1473 13.1617L23.1298 13.8784C23.8101 13.9604 24.4293 13.4726 24.5099 12.7935C24.5919 12.1132 24.1041 11.494 23.425 11.4134L21.8537 11.2234C21.5909 11.1922 21.3763 10.9984 21.319 10.7395C21.2618 10.4807 21.3724 10.2153 21.5961 10.0735C24.6894 8.13142 28.2641 7.10508 31.9324 7.10508C37.1304 7.10508 42.0176 9.12914 45.6924 12.8052C46.1763 13.2891 46.9646 13.2891 47.4485 12.8052C47.9324 12.3213 47.9324 11.533 47.4485 11.0491C43.3041 6.90475 37.7938 4.62182 31.9324 4.62182C27.6943 4.62182 23.5785 5.83418 20.0299 8.12751C19.827 8.2589 19.5655 8.2615 19.36 8.13272C19.1545 8.00394 19.0413 7.76979 19.0712 7.52914L19.2429 6.09174C19.3249 5.41142 18.8371 4.79223 18.158 4.71158C18.1086 4.70638 18.0592 4.70377 18.0098 4.70377ZM11.8699 49.3269C11.7711 49.3269 11.6709 49.3204 11.5707 49.3087L5.58699 48.5919C4.22374 48.428 3.24683 47.187 3.41073 45.8225C3.57463 44.4592 4.81691 43.481 6.18016 43.6462L6.34407 43.6657C4.35772 40.1782 3.31317 36.2407 3.31317 32.1965C3.31317 26.002 5.72618 20.1769 10.106 15.7971C10.5756 15.3275 11.2013 15.0687 11.8673 15.0687C12.5333 15.0687 13.159 15.3275 13.6286 15.7971C14.599 16.7675 14.599 18.348 13.6286 19.3197C10.1893 22.7591 8.29398 27.3327 8.29398 32.1978C8.29398 35.0075 8.93659 37.7574 10.1672 40.2498C10.465 39.0491 11.6215 38.2283 12.8793 38.3792C14.2426 38.5418 15.2195 39.7841 15.0556 41.1487L14.3389 47.1324C14.3063 47.4043 14.2296 47.667 14.1112 47.9129C13.9902 48.1652 13.8276 48.3968 13.6273 48.5971C13.3559 48.8704 13.0239 49.0758 12.6582 49.1968C12.402 49.2839 12.1379 49.3269 11.8699 49.3269ZM5.88228 44.8781C5.26309 44.8781 4.72585 45.3425 4.65041 45.9721C4.56846 46.6511 5.05626 47.2716 5.73529 47.3522L11.7177 48.069C11.9024 48.0911 12.0846 48.0716 12.2602 48.013C12.4427 47.9528 12.6085 47.8503 12.7441 47.7139C12.8442 47.6137 12.9249 47.4992 12.9847 47.373C13.0446 47.2495 13.0823 47.1194 13.0979 46.9841L13.8146 41.0004C13.8966 40.32 13.4088 39.7008 12.7298 39.6202C12.0494 39.5382 11.4302 40.0261 11.3496 40.7051L11.161 42.2765C11.1458 42.4048 11.091 42.5252 11.0043 42.6209C10.9176 42.7167 10.8032 42.7832 10.6771 42.8111C10.551 42.8393 10.4194 42.8278 10.3001 42.7782C10.1809 42.7286 10.0799 42.6433 10.0111 42.534C8.06894 39.4394 7.0426 35.8661 7.0426 32.1978C7.0426 26.9997 9.06667 22.1126 12.7428 18.4378C13.2267 17.9539 13.2267 17.1656 12.7428 16.6817C12.2589 16.1978 11.4706 16.1978 10.9867 16.6817C6.84228 20.8261 4.55935 26.3363 4.55935 32.1978C4.55935 36.4358 5.77171 40.5516 8.06504 44.1002C8.19642 44.3031 8.19902 44.5646 8.07024 44.7701C7.94146 44.9756 7.70602 45.0888 7.46667 45.0589L6.02927 44.8872C5.97984 44.8807 5.93041 44.8781 5.88228 44.8781ZM32.1353 60.8182C25.9408 60.8182 20.1158 58.4065 15.7359 54.0254C15.2663 53.5558 15.0075 52.9301 15.0075 52.2641C15.0075 51.5981 15.2663 50.9724 15.7359 50.5028C16.2055 50.0332 16.8312 49.7743 17.4972 49.7743C18.1633 49.7743 18.7889 50.0332 19.2585 50.5028C22.6979 53.9421 27.2715 55.8374 32.1366 55.8361C34.9463 55.8361 37.6963 55.1922 40.1886 53.963C38.9893 53.6651 38.1672 52.5087 38.3181 51.2508C38.482 49.8875 39.7242 48.9093 41.0875 49.0745L47.0712 49.7913C47.3444 49.8238 47.6072 49.9005 47.8517 50.0189C48.1041 50.1386 48.3356 50.3025 48.5359 50.5028C48.8117 50.7786 49.0133 51.1038 49.1356 51.4719C49.254 51.8218 49.2917 52.1887 49.2475 52.5607L48.5307 58.5444C48.4514 59.2039 48.1197 59.7932 47.5967 60.2056C47.0725 60.6166 46.4208 60.8013 45.7626 60.722C45.1031 60.6426 44.5138 60.3109 44.1015 59.788C43.6891 59.2651 43.507 58.6134 43.585 57.9539L43.6045 57.79C40.1171 59.7737 36.1795 60.8182 32.1353 60.8182ZM17.4972 51.0244C17.3343 51.0238 17.1728 51.0555 17.0221 51.1175C16.8714 51.1796 16.7345 51.2709 16.6192 51.3861C16.385 51.6202 16.2576 51.9311 16.2576 52.2641C16.2576 52.5971 16.3863 52.908 16.6192 53.1421C20.7636 57.2865 26.2738 59.5695 32.1353 59.5695C36.3733 59.5695 40.4891 58.3571 44.0377 56.0638C44.2407 55.9324 44.5021 55.9298 44.7076 56.0586C44.9132 56.1874 45.0263 56.4215 44.9964 56.6621L44.8247 58.0995C44.7857 58.4274 44.8767 58.7526 45.0823 59.014C45.2878 59.2755 45.5818 59.4407 45.9096 59.481C46.2374 59.5187 46.5626 59.429 46.8241 59.2234C47.0855 59.0179 47.2507 58.7239 47.2911 58.3961L48.0078 52.4124C48.0299 52.2277 48.0104 52.0456 47.9519 51.8713C47.8916 51.6887 47.7891 51.5229 47.6527 51.3874C47.5537 51.2881 47.4385 51.2067 47.3119 51.1467C47.1883 51.0869 47.0582 51.0491 46.9216 51.0322L40.9392 50.3155C40.2615 50.2348 39.6397 50.7213 39.559 51.4004C39.4771 52.0807 39.9649 52.6999 40.6439 52.7805L42.214 52.9691C42.4767 53.0004 42.6914 53.1942 42.7486 53.4517C42.8072 53.7106 42.6953 53.9773 42.4715 54.1178C39.3782 56.0599 35.8036 57.0862 32.1353 57.0862C26.9372 57.0862 22.0501 55.0621 18.3753 51.3861C18.2599 51.271 18.123 51.1798 17.9723 51.1177C17.8216 51.0556 17.6602 51.0239 17.4972 51.0244ZM52.2016 49.1226C51.5642 49.1226 50.9255 48.8794 50.4403 48.3942C49.4699 47.4238 49.4699 45.8433 50.4403 44.8716C53.8797 41.4322 55.775 36.8586 55.775 31.9935C55.775 29.1838 55.1311 26.4339 53.9018 23.9415C53.6039 25.1408 52.4488 25.9617 51.1896 25.8121C49.8263 25.6482 48.8494 24.4072 49.0133 23.0426L49.7301 17.0589C49.7626 16.787 49.8393 16.5243 49.9577 16.2784C50.0787 16.0261 50.2413 15.7945 50.4429 15.5942C50.7174 15.3197 51.0439 15.1168 51.412 14.9945C51.762 14.8761 52.1288 14.8384 52.5008 14.8826L58.4832 15.5994C59.8465 15.7633 60.8234 17.0043 60.6595 18.3688C60.4956 19.7321 59.2546 20.709 57.8901 20.5451L57.7262 20.5256C59.7125 24.013 60.7571 27.9506 60.7571 31.9948C60.7571 38.1893 58.3454 44.0143 53.9642 48.3942C53.4777 48.8794 52.8403 49.1226 52.2016 49.1226ZM53.5259 21.3659C53.7379 21.3659 53.9382 21.4739 54.054 21.6586C55.9961 24.7519 57.0224 28.3265 57.0224 31.9948C57.0224 37.1929 54.9984 42.08 51.3223 45.7548C50.8384 46.2387 50.8384 47.027 51.3223 47.5109C51.8062 47.9948 52.5945 47.9948 53.0784 47.5109C57.2228 43.3665 59.5057 37.8563 59.5057 31.9948C59.5057 27.7568 58.2933 23.641 56 20.0924C55.9355 19.9928 55.9007 19.8769 55.8998 19.7582C55.8989 19.6395 55.9318 19.5231 55.9948 19.4225C56.0573 19.3217 56.1473 19.2409 56.2543 19.1897C56.3613 19.1385 56.4807 19.1191 56.5984 19.1337L58.0358 19.3054C58.7148 19.3874 59.3353 18.8995 59.4159 18.2205C59.4979 17.5402 59.0101 16.921 58.3311 16.8404L52.3473 16.1236C52.1646 16.101 51.9791 16.1201 51.8049 16.1795C51.6223 16.2398 51.4565 16.3423 51.321 16.4787C51.2208 16.5789 51.1402 16.6934 51.079 16.8195C51.0192 16.9431 50.9815 17.0732 50.9659 17.2085L50.2491 23.1922C50.1672 23.8726 50.655 24.4917 51.334 24.5724C52.0143 24.653 52.6335 24.1665 52.7141 23.4875L52.9028 21.9174C52.9179 21.7893 52.9725 21.6691 53.059 21.5733C53.1454 21.4775 53.2595 21.411 53.3854 21.3828C53.4348 21.3711 53.4803 21.3659 53.5259 21.3659ZM41.5259 43.5187H22.5418C21.4374 43.5187 20.5385 42.6199 20.5385 41.5155V36.5737C20.5385 35.4693 21.4374 34.5704 22.5418 34.5704H41.5272C42.6315 34.5704 43.5304 35.4693 43.5304 36.5737V41.5155C43.5304 42.6199 42.6315 43.5187 41.5259 43.5187ZM22.5418 35.8179C22.1255 35.8179 21.7873 36.1561 21.7873 36.5724V41.5142C21.7873 41.9304 22.1255 42.2687 22.5418 42.2687H41.5272C41.9434 42.2687 42.2816 41.9304 42.2816 41.5142V36.5724C42.2816 36.1561 41.9434 35.8179 41.5272 35.8179H22.5418Z" fill="black"/>
<path d="M39.7034 37.8875H24.3642C24.2008 37.8841 24.0453 37.8169 23.9309 37.7001C23.8165 37.5834 23.7524 37.4265 23.7524 37.2631C23.7524 37.0996 23.8165 36.9427 23.9309 36.826C24.0453 36.7093 24.2008 36.642 24.3642 36.6387H39.7021C39.8655 36.6418 40.0211 36.7089 40.1356 36.8255C40.2501 36.9421 40.3144 37.099 40.3145 37.2624C40.3147 37.4259 40.2508 37.5828 40.1366 37.6997C40.0223 37.8165 39.8668 37.884 39.7034 37.8875ZM36.9223 39.6683H27.1467C26.9833 39.6649 26.8277 39.5977 26.7133 39.4809C26.5989 39.3642 26.5349 39.2073 26.5349 39.0439C26.5349 38.8804 26.5989 38.7235 26.7133 38.6068C26.8277 38.4901 26.9833 38.4228 27.1467 38.4195H36.9223C37.0857 38.4228 37.2412 38.4901 37.3556 38.6068C37.47 38.7235 37.534 38.8804 37.534 39.0439C37.534 39.2073 37.47 39.3642 37.3556 39.4809C37.2412 39.5977 37.0857 39.6649 36.9223 39.6683ZM39.7034 41.4504H24.3642C24.2008 41.447 24.0453 41.3798 23.9309 41.2631C23.8165 41.1463 23.7524 40.9894 23.7524 40.826C23.7524 40.6626 23.8165 40.5056 23.9309 40.3889C24.0453 40.2722 24.2008 40.2049 24.3642 40.2016H39.7021C39.8655 40.2048 40.0211 40.2718 40.1356 40.3885C40.2501 40.5051 40.3144 40.6619 40.3145 40.8253C40.3147 40.9888 40.2508 41.1458 40.1366 41.2626C40.0223 41.3795 39.8668 41.4469 39.7034 41.4504Z" fill="black"/>
<path d="M44.1353 46.7684H19.9324C18.2816 46.7684 16.9379 45.4259 16.9379 43.7739V20.4178C16.9379 18.7671 18.2803 17.4233 19.9324 17.4233H44.1353C45.786 17.4233 47.1298 18.7658 47.1298 20.4178V43.7739C47.1285 45.4259 45.786 46.7684 44.1353 46.7684ZM19.9324 18.6734C18.9698 18.6734 18.1867 19.4565 18.1867 20.4191V43.7752C18.1867 44.7378 18.9698 45.5209 19.9324 45.5209H44.1353C45.0979 45.5209 45.881 44.7378 45.881 43.7752V20.4178C45.881 19.4552 45.0979 18.6721 44.1353 18.6721H19.9324V18.6734Z" fill="black"/>
<path d="M27.4888 30.8761C27.4069 30.8761 27.3257 30.8599 27.2501 30.8285C27.1744 30.7971 27.1057 30.7511 27.0478 30.6931C26.9899 30.6351 26.9441 30.5662 26.9128 30.4905C26.8816 30.4148 26.8656 30.3336 26.8657 30.2517V18.0488C26.869 17.8854 26.9363 17.7298 27.053 17.6154C27.1697 17.5011 27.3267 17.437 27.4901 17.437C27.6535 17.437 27.8104 17.5011 27.9272 17.6154C28.0439 17.7298 28.1111 17.8854 28.1145 18.0488V29.0381L31.6709 26.495C31.7768 26.4194 31.9037 26.3789 32.0338 26.3789C32.1639 26.3789 32.2908 26.4194 32.3968 26.495L35.9532 29.0381V18.0488C35.9565 17.8854 36.0238 17.7298 36.1405 17.6154C36.2572 17.5011 36.4141 17.437 36.5776 17.437C36.741 17.437 36.8979 17.5011 37.0146 17.6154C37.1314 17.7298 37.1986 17.8854 37.202 18.0488V30.2517C37.202 30.4859 37.0719 30.7005 36.8637 30.8072C36.6556 30.9138 36.4059 30.8956 36.2146 30.7603L32.0338 27.7711L27.853 30.7603C27.745 30.8371 27.6176 30.8761 27.4888 30.8761Z" fill="black"/>
<path d="M34.547 20.8235H29.5206C29.3573 20.8202 29.2017 20.7529 29.0873 20.6362C28.9729 20.5194 28.9089 20.3625 28.9089 20.1991C28.9089 20.0357 28.9729 19.8788 29.0873 19.762C29.2017 19.6453 29.3573 19.578 29.5206 19.5747H34.547C34.7104 19.578 34.866 19.6453 34.9803 19.762C35.0947 19.8788 35.1588 20.0357 35.1588 20.1991C35.1588 20.3625 35.0947 20.5194 34.9803 20.6362C34.866 20.7529 34.7104 20.8202 34.547 20.8235ZM34.547 22.8463H29.5206C29.3573 22.8429 29.2017 22.7757 29.0873 22.6589C28.9729 22.5422 28.9089 22.3853 28.9089 22.2219C28.9089 22.0584 28.9729 21.9015 29.0873 21.7848C29.2017 21.6681 29.3573 21.6008 29.5206 21.5975H34.547C34.7104 21.6008 34.866 21.6681 34.9803 21.7848C35.0947 21.9015 35.1588 22.0584 35.1588 22.2219C35.1588 22.3853 35.0947 22.5422 34.9803 22.6589C34.866 22.7757 34.7104 22.8429 34.547 22.8463Z" fill="black"/>
</svg>
