<svg width="64" height="64" viewBox="0 0 64 64" fill="none" xmlns="http://www.w3.org/2000/svg">
<path d="M26 14H22C21.7348 14 21.4804 13.8946 21.2929 13.7071C21.1054 13.5196 21 13.2652 21 13C21 12.7348 21.1054 12.4804 21.2929 12.2929C21.4804 12.1054 21.7348 12 22 12H26C26.2652 12 26.5196 12.1054 26.7071 12.2929C26.8946 12.4804 27 12.7348 27 13C27 13.2652 26.8946 13.5196 26.7071 13.7071C26.5196 13.8946 26.2652 14 26 14ZM42 52H38C37.7348 52 37.4804 51.8946 37.2929 51.7071C37.1054 51.5196 37 51.2652 37 51C37 50.7348 37.1054 50.4804 37.2929 50.2929C37.4804 50.1054 37.7348 50 38 50H42C42.2652 50 42.5196 50.1054 42.7071 50.2929C42.8946 50.4804 43 50.7348 43 51C43 51.2652 42.8946 51.5196 42.7071 51.7071C42.5196 51.8946 42.2652 52 42 52ZM50.5 33H45C44.7348 33 44.4804 32.8946 44.2929 32.7071C44.1054 32.5196 44 32.2652 44 32C44 31.7348 44.1054 31.4804 44.2929 31.2929C44.4804 31.1054 44.7348 31 45 31H50.5C55.187 31 59 27.187 59 22.5C59 17.813 55.187 14 50.5 14H50C49.7348 14 49.4804 13.8946 49.2929 13.7071C49.1054 13.5196 49 13.2652 49 13C49 12.7348 49.1054 12.4804 49.2929 12.2929C49.4804 12.1054 49.7348 12 50 12H50.5C56.29 12 61 16.71 61 22.5C61 28.29 56.29 33 50.5 33ZM14 52H13.5C7.71 52 3 47.29 3 41.5C3 35.71 7.71 31 13.5 31H21C21.2652 31 21.5196 31.1054 21.7071 31.2929C21.8946 31.4804 22 31.7348 22 32C22 32.2652 21.8946 32.5196 21.7071 32.7071C21.5196 32.8946 21.2652 33 21 33H13.5C8.813 33 5 36.813 5 41.5C5 46.187 8.813 50 13.5 50H14C14.2652 50 14.5196 50.1054 14.7071 50.2929C14.8946 50.4804 15 50.7348 15 51C15 51.2652 14.8946 51.5196 14.7071 51.7071C14.5196 51.8946 14.2652 52 14 52Z" fill="#6E6E7C"/>
<path d="M45 27V37C45 37.55 44.55 38 44 38H22C21.45 38 21 37.55 21 37V27C21 26.45 21.45 26 22 26H44C44.55 26 45 26.45 45 27Z" fill="#FFD62C"/>
<path d="M50 8V18C50 18.55 49.59 19 49.08 19H26.92C26.41 19 26 18.55 26 18V8C26 7.45 26.41 7 26.92 7H49.08C49.59 7 50 7.45 50 8Z" fill="#3BA9FE"/>
<path d="M38 46V56C38 56.55 37.55 57 37 57H15C14.45 57 14 56.55 14 56V46C14 45.45 14.45 45 15 45H37C37.55 45 38 45.45 38 46Z" fill="#ED294A"/>
<path d="M45 27V37C45 37.55 44.55 38 44 38H22C21.45 38 21 37.55 21 37H43C43.55 37 44 36.55 44 36V26C44.55 26 45 26.45 45 27Z" fill="#F7CF28"/>
<path d="M50 8V18C50 18.55 49.59 19 49.08 19H26.92C26.41 19 26 18.55 26 18H48.08C48.59 18 49 17.55 49 17V7H49.08C49.59 7 50 7.45 50 8Z" fill="#33A5F2"/>
<path d="M38 46V56C38 56.55 37.55 57 37 57H15C14.45 57 14 56.55 14 56H36C36.55 56 37 55.55 37 55V45C37.55 45 38 45.45 38 46Z" fill="#E22750"/>
<path d="M51 60C55.9706 60 60 55.9706 60 51C60 46.0294 55.9706 42 51 42C46.0294 42 42 46.0294 42 51C42 55.9706 46.0294 60 51 60Z" fill="#91D834"/>
<path d="M56.84 44.1602C58.2352 45.7859 59.0016 47.8578 59 50.0002C59 52.3871 58.0518 54.6763 56.364 56.3641C54.6761 58.0519 52.387 59.0002 50 59.0002C47.8577 59.0017 45.7857 58.2354 44.16 56.8402C45.0029 57.8312 46.0512 58.6271 47.2323 59.1728C48.4134 59.7184 49.699 60.0007 51 60.0002C53.387 60.0002 55.6761 59.0519 57.364 57.3641C59.0518 55.6763 60 53.3871 60 51.0002C60 48.2602 58.771 45.8102 56.84 44.1602Z" fill="#92CE34"/>
<path d="M19.339 9.906L20.509 8.398C20.5838 8.30198 20.621 8.18195 20.6137 8.06044C20.6063 7.93894 20.5549 7.82429 20.469 7.738L18.263 5.533C18.1767 5.44645 18.0617 5.39449 17.9398 5.38693C17.8178 5.37938 17.6973 5.41675 17.601 5.492L16.095 6.668C16.0253 6.72246 15.9423 6.75744 15.8546 6.76937C15.767 6.78129 15.6777 6.76973 15.5959 6.73587C15.5142 6.70201 15.4429 6.64706 15.3893 6.57664C15.3357 6.50621 15.3018 6.42283 15.291 6.335L15.055 4.438C15.0399 4.31692 14.981 4.20556 14.8894 4.12488C14.7979 4.04421 14.68 3.99979 14.558 4H11.442C11.32 3.99979 11.2021 4.04421 11.1106 4.12488C11.019 4.20556 10.9601 4.31692 10.945 4.438L10.709 6.335C10.6982 6.42283 10.6643 6.50621 10.6107 6.57664C10.5571 6.64706 10.4858 6.70201 10.4041 6.73587C10.3223 6.76973 10.233 6.78129 10.1454 6.76937C10.0577 6.75744 9.97474 6.72246 9.905 6.668L8.4 5.492C8.30383 5.41663 8.18338 5.37908 8.06141 5.38645C7.93945 5.39382 7.8244 5.44559 7.738 5.532L5.532 7.739C5.44584 7.82503 5.39403 7.93955 5.3863 8.06107C5.37856 8.18258 5.41544 8.30274 5.49 8.399L6.661 9.907C6.7152 9.97674 6.74997 10.0596 6.76175 10.1471C6.77353 10.2347 6.76191 10.3238 6.72808 10.4054C6.69424 10.487 6.6394 10.5581 6.56912 10.6116C6.49885 10.6651 6.41565 10.6991 6.328 10.71L4.438 10.946C4.31709 10.9611 4.20587 11.0198 4.12521 11.1112C4.04456 11.2025 4.00003 11.3202 4 11.442V14.56C4.00003 14.6818 4.04456 14.7995 4.12521 14.8908C4.20587 14.9822 4.31709 15.0409 4.438 15.056L6.328 15.292C6.41565 15.3029 6.49885 15.3369 6.56912 15.3904C6.6394 15.4439 6.69424 15.515 6.72808 15.5966C6.76191 15.6782 6.77353 15.7673 6.76175 15.8549C6.74997 15.9424 6.7152 16.0253 6.661 16.095L5.491 17.603C5.41618 17.699 5.37896 17.819 5.38633 17.9406C5.39369 18.0621 5.44513 18.1767 5.531 18.263L7.738 20.469C7.82403 20.5552 7.93855 20.607 8.06006 20.6147C8.18158 20.6224 8.30174 20.5856 8.398 20.511L9.906 19.34C9.97574 19.2858 10.0586 19.251 10.1461 19.2393C10.2337 19.2275 10.3228 19.2391 10.4044 19.2729C10.486 19.3068 10.5571 19.3616 10.6106 19.4319C10.6641 19.5022 10.6981 19.5854 10.709 19.673L10.945 21.563C10.9601 21.6839 11.0188 21.7951 11.1102 21.8758C11.2015 21.9564 11.3192 22.001 11.441 22.001H14.559C14.6808 22.001 14.7985 21.9564 14.8898 21.8758C14.9812 21.7951 15.0399 21.6839 15.055 21.563L15.291 19.673C15.3019 19.5854 15.3359 19.5022 15.3894 19.4319C15.4429 19.3616 15.514 19.3068 15.5956 19.2729C15.6772 19.2391 15.7663 19.2275 15.8539 19.2393C15.9414 19.251 16.0243 19.2858 16.094 19.34L17.602 20.51C17.698 20.5848 17.818 20.622 17.9396 20.6147C18.0611 20.6073 18.1757 20.5559 18.262 20.47L20.468 18.263C20.5542 18.177 20.606 18.0625 20.6137 17.9409C20.6214 17.8194 20.5846 17.6993 20.51 17.603L19.339 16.095C19.2848 16.0253 19.25 15.9424 19.2383 15.8549C19.2265 15.7673 19.2381 15.6782 19.2719 15.5966C19.3058 15.515 19.3606 15.4439 19.4309 15.3904C19.5012 15.3369 19.5843 15.3029 19.672 15.292L21.562 15.056C21.6829 15.0409 21.7941 14.9822 21.8748 14.8908C21.9554 14.7995 22 14.6818 22 14.56V11.44C22 11.3182 21.9554 11.2005 21.8748 11.1092C21.7941 11.0178 21.6829 10.9591 21.562 10.944L19.672 10.708C19.5843 10.6971 19.5012 10.6631 19.4309 10.6096C19.3606 10.5561 19.3058 10.485 19.2719 10.4034C19.2381 10.3218 19.2265 10.2327 19.2383 10.1451C19.25 10.0576 19.2848 9.97474 19.339 9.905V9.906ZM13 16C11.34 16 10 14.66 10 13C10 11.34 11.34 10 13 10C14.66 10 16 11.34 16 13C16 14.66 14.66 16 13 16Z" fill="#757483"/>
<path d="M36 12H29C28.7348 12 28.4804 12.1054 28.2929 12.2929C28.1054 12.4804 28 12.7348 28 13C28 13.2652 28.1054 13.5196 28.2929 13.7071C28.4804 13.8946 28.7348 14 29 14H36C36.2652 14 36.5196 13.8946 36.7071 13.7071C36.8946 13.5196 37 13.2652 37 13C37 12.7348 36.8946 12.4804 36.7071 12.2929C36.5196 12.1054 36.2652 12 36 12ZM41 12H40C39.7348 12 39.4804 12.1054 39.2929 12.2929C39.1054 12.4804 39 12.7348 39 13C39 13.2652 39.1054 13.5196 39.2929 13.7071C39.4804 13.8946 39.7348 14 40 14H41C41.2652 14 41.5196 13.8946 41.7071 13.7071C41.8946 13.5196 42 13.2652 42 13C42 12.7348 41.8946 12.4804 41.7071 12.2929C41.5196 12.1054 41.2652 12 41 12ZM46 12H45C44.7348 12 44.4804 12.1054 44.2929 12.2929C44.1054 12.4804 44 12.7348 44 13C44 13.2652 44.1054 13.5196 44.2929 13.7071C44.4804 13.8946 44.7348 14 45 14H46C46.2652 14 46.5196 13.8946 46.7071 13.7071C46.8946 13.5196 47 13.2652 47 13C47 12.7348 46.8946 12.4804 46.7071 12.2929C46.5196 12.1054 46.2652 12 46 12ZM30 33H31C31.2652 33 31.5196 32.8946 31.7071 32.7071C31.8946 32.5196 32 32.2652 32 32C32 31.7348 31.8946 31.4804 31.7071 31.2929C31.5196 31.1054 31.2652 31 31 31H30C29.7348 31 29.4804 31.1054 29.2929 31.2929C29.1054 31.4804 29 31.7348 29 32C29 32.2652 29.1054 32.5196 29.2929 32.7071C29.4804 32.8946 29.7348 33 30 33ZM25 33H26C26.2652 33 26.5196 32.8946 26.7071 32.7071C26.8946 32.5196 27 32.2652 27 32C27 31.7348 26.8946 31.4804 26.7071 31.2929C26.5196 31.1054 26.2652 31 26 31H25C24.7348 31 24.4804 31.1054 24.2929 31.2929C24.1054 31.4804 24 31.7348 24 32C24 32.2652 24.1054 32.5196 24.2929 32.7071C24.4804 32.8946 24.7348 33 25 33ZM29 50H28C27.7348 50 27.4804 50.1054 27.2929 50.2929C27.1054 50.4804 27 50.7348 27 51C27 51.2652 27.1054 51.5196 27.2929 51.7071C27.4804 51.8946 27.7348 52 28 52H29C29.2652 52 29.5196 51.8946 29.7071 51.7071C29.8946 51.5196 30 51.2652 30 51C30 50.7348 29.8946 50.4804 29.7071 50.2929C29.5196 50.1054 29.2652 50 29 50ZM34 50H33C32.7348 50 32.4804 50.1054 32.2929 50.2929C32.1054 50.4804 32 50.7348 32 51C32 51.2652 32.1054 51.5196 32.2929 51.7071C32.4804 51.8946 32.7348 52 33 52H34C34.2652 52 34.5196 51.8946 34.7071 51.7071C34.8946 51.5196 35 51.2652 35 51C35 50.7348 34.8946 50.4804 34.7071 50.2929C34.5196 50.1054 34.2652 50 34 50ZM54.231 47.36L49.933 52.519L47.707 50.293C47.6148 50.1975 47.5044 50.1213 47.3824 50.0689C47.2604 50.0165 47.1292 49.9889 46.9964 49.9878C46.8636 49.9866 46.7319 50.0119 46.609 50.0622C46.4862 50.1125 46.3745 50.1867 46.2806 50.2806C46.1867 50.3745 46.1125 50.4861 46.0622 50.609C46.0119 50.7319 45.9866 50.8636 45.9878 50.9964C45.9889 51.1292 46.0165 51.2604 46.0689 51.3824C46.1213 51.5044 46.1975 51.6148 46.293 51.707L49.293 54.707C49.3911 54.8056 49.5088 54.8825 49.6383 54.933C49.7679 54.9835 49.9066 55.0064 50.0456 55.0002C50.1845 54.9939 50.3206 54.9588 50.4452 54.8969C50.5698 54.8351 50.6801 54.7479 50.769 54.641L55.769 48.641C55.9387 48.437 56.0205 48.174 55.9963 47.9098C55.9721 47.6455 55.844 47.4017 55.64 47.232C55.436 47.0623 55.173 46.9805 54.9088 47.0047C54.6445 47.0289 54.4007 47.156 54.231 47.36ZM35 33H41C41.2652 33 41.5196 32.8946 41.7071 32.7071C41.8946 32.5196 42 32.2652 42 32C42 31.7348 41.8946 31.4804 41.7071 31.2929C41.5196 31.1054 41.2652 31 41 31H35C34.7348 31 34.4804 31.1054 34.2929 31.2929C34.1054 31.4804 34 31.7348 34 32C34 32.2652 34.1054 32.5196 34.2929 32.7071C34.4804 32.8946 34.7348 33 35 33ZM24 50H18C17.7348 50 17.4804 50.1054 17.2929 50.2929C17.1054 50.4804 17 50.7348 17 51C17 51.2652 17.1054 51.5196 17.2929 51.7071C17.4804 51.8946 17.7348 52 18 52H24C24.2652 52 24.5196 51.8946 24.7071 51.7071C24.8946 51.5196 25 51.2652 25 51C25 50.7348 24.8946 50.4804 24.7071 50.2929C24.5196 50.1054 24.2652 50 24 50Z" fill="#E1E1EA"/>
</svg>
